<svg xmlns="http://www.w3.org/2000/svg" width="880" height="2311" viewBox="0 0 880 2311">
<defs>
  <linearGradient id="goGrad2" x1="0" y1="0" x2="1" y2="0">
    <stop offset="0%" stop-color="#00ADD8" stop-opacity="0.9"/>
    <stop offset="100%" stop-color="#0891B2" stop-opacity="0.8"/>
  </linearGradient>
  <linearGradient id="tsGrad2" x1="0" y1="0" x2="1" y2="0">
    <stop offset="0%" stop-color="#3178C6" stop-opacity="0.9"/>
    <stop offset="100%" stop-color="#1D4ED8" stop-opacity="0.8"/>
  </linearGradient>
</defs>
<rect width="880" height="2311" fill="#FAFAFA" rx="12"/>
<rect x=".5" y=".5" width="879" height="2310" fill="none" stroke="#E5E7EB" rx="12"/>
<text x="440" y="34" text-anchor="middle" font-family="system-ui,sans-serif" font-size="18" font-weight="700" fill="#111827">Latency Comparison: Go vs TypeScript</text>
<text x="440" y="54" text-anchor="middle" font-family="system-ui,sans-serif" font-size="12" fill="#6B7280">Nanoseconds per operation (lower is better) &#183; log scale</text>
<g transform="translate(200,80)">
  <line x1="0.0" y1="0" x2="0.0" y2="2176" stroke="#E5E7EB"/>
  <text x="0.0" y="2192" text-anchor="middle" font-family="system-ui,sans-serif" font-size="10" fill="#9CA3AF">1ns</text>
  <line x1="82.9" y1="0" x2="82.9" y2="2176" stroke="#E5E7EB"/>
  <text x="82.9" y="2192" text-anchor="middle" font-family="system-ui,sans-serif" font-size="10" fill="#9CA3AF">10ns</text>
  <line x1="165.7" y1="0" x2="165.7" y2="2176" stroke="#E5E7EB"/>
  <text x="165.7" y="2192" text-anchor="middle" font-family="system-ui,sans-serif" font-size="10" fill="#9CA3AF">100ns</text>
  <line x1="248.6" y1="0" x2="248.6" y2="2176" stroke="#E5E7EB"/>
  <text x="248.6" y="2192" text-anchor="middle" font-family="system-ui,sans-serif" font-size="10" fill="#9CA3AF">1&#181;s</text>
  <line x1="331.4" y1="0" x2="331.4" y2="2176" stroke="#E5E7EB"/>
  <text x="331.4" y="2192" text-anchor="middle" font-family="system-ui,sans-serif" font-size="10" fill="#9CA3AF">10&#181;s</text>
  <line x1="414.3" y1="0" x2="414.3" y2="2176" stroke="#E5E7EB"/>
  <text x="414.3" y="2192" text-anchor="middle" font-family="system-ui,sans-serif" font-size="10" fill="#9CA3AF">100&#181;s</text>
  <line x1="497.1" y1="0" x2="497.1" y2="2176" stroke="#E5E7EB"/>
  <text x="497.1" y="2192" text-anchor="middle" font-family="system-ui,sans-serif" font-size="10" fill="#9CA3AF">1ms</text>
  <line x1="580.0" y1="0" x2="580.0" y2="2176" stroke="#E5E7EB"/>
  <text x="580.0" y="2192" text-anchor="middle" font-family="system-ui,sans-serif" font-size="10" fill="#9CA3AF">10ms</text>
  <text x="-10" y="16" text-anchor="end" font-family="system-ui,sans-serif" font-size="13" font-weight="700" fill="#1F2937">Abi</text>
  <text x="-10" y="58" text-anchor="end" font-family="system-ui,sans-serif" font-size="11.5" fill="#4B5563">Decode Result</text>
  <rect x="0" y="36" width="183.7" height="16" fill="url(#goGrad2)" rx="3"/>
  <text x="189.7" y="48" font-family="system-ui,sans-serif" font-size="10" fill="#0E7490">165.0 ns</text>
  <rect x="0" y="56" width="355.2" height="16" fill="url(#tsGrad2)" rx="3"/>
  <text x="361.2" y="68" font-family="system-ui,sans-serif" font-size="10" fill="#1E40AF">19.37 µs</text>
  <text x="-10" y="110" text-anchor="end" font-family="system-ui,sans-serif" font-size="11.5" fill="#4B5563">Encode Simple</text>
  <rect x="0" y="88" width="207.7" height="16" fill="url(#goGrad2)" rx="3"/>
  <text x="213.7" y="100" font-family="system-ui,sans-serif" font-size="10" fill="#0E7490">320.8 ns</text>
  <rect x="0" y="108" width="387.5" height="16" fill="url(#tsGrad2)" rx="3"/>
  <text x="393.5" y="120" font-family="system-ui,sans-serif" font-size="10" fill="#1E40AF">47.49 µs</text>
  <text x="-10" y="162" text-anchor="end" font-family="system-ui,sans-serif" font-size="11.5" fill="#4B5563">Encode Complex</text>
  <rect x="0" y="140" width="217.6" height="16" fill="url(#goGrad2)" rx="3"/>
  <text x="223.6" y="152" font-family="system-ui,sans-serif" font-size="10" fill="#0E7490">423.3 ns</text>
  <rect x="0" y="160" width="372.4" height="16" fill="url(#tsGrad2)" rx="3"/>
  <text x="378.4" y="172" font-family="system-ui,sans-serif" font-size="10" fill="#1E40AF">31.19 µs</text>
  <text x="-10" y="214" text-anchor="end" font-family="system-ui,sans-serif" font-size="11.5" fill="#4B5563">EncodePacked Multi</text>
  <rect x="0" y="192" width="221.0" height="16" fill="url(#goGrad2)" rx="3"/>
  <text x="227.0" y="204" font-family="system-ui,sans-serif" font-size="10" fill="#0E7490">464.2 ns</text>
  <rect x="0" y="212" width="295.5" height="16" fill="url(#tsGrad2)" rx="3"/>
  <text x="301.5" y="224" font-family="system-ui,sans-serif" font-size="10" fill="#1E40AF">3.68 µs</text>
  <text x="-10" y="266" text-anchor="end" font-family="system-ui,sans-serif" font-size="11.5" fill="#4B5563">EncodePacked</text>
  <rect x="0" y="244" width="222.7" height="16" fill="url(#goGrad2)" rx="3"/>
  <text x="228.7" y="256" font-family="system-ui,sans-serif" font-size="10" fill="#0E7490">486.7 ns</text>
  <rect x="0" y="264" width="314.9" height="16" fill="url(#tsGrad2)" rx="3"/>
  <text x="320.9" y="276" font-family="system-ui,sans-serif" font-size="10" fill="#1E40AF">6.32 µs</text>
  <text x="-10" y="318" text-anchor="end" font-family="system-ui,sans-serif" font-size="11.5" fill="#4B5563">Encode 3-Arg</text>
  <rect x="0" y="296" width="227.7" height="16" fill="url(#goGrad2)" rx="3"/>
  <text x="233.7" y="308" font-family="system-ui,sans-serif" font-size="10" fill="#0E7490">560.0 ns</text>
  <rect x="0" y="316" width="353.6" height="16" fill="url(#tsGrad2)" rx="3"/>
  <text x="359.6" y="328" font-family="system-ui,sans-serif" font-size="10" fill="#1E40AF">18.50 µs</text>
  <text x="-10" y="364" text-anchor="end" font-family="system-ui,sans-serif" font-size="13" font-weight="700" fill="#1F2937">Address</text>
  <text x="-10" y="406" text-anchor="end" font-family="system-ui,sans-serif" font-size="11.5" fill="#4B5563">IsAddress Lower</text>
  <rect x="0" y="384" width="180.7" height="16" fill="url(#goGrad2)" rx="3"/>
  <text x="186.7" y="396" font-family="system-ui,sans-serif" font-size="10" fill="#0E7490">151.7 ns</text>
  <rect x="0" y="404" width="240.4" height="16" fill="url(#tsGrad2)" rx="3"/>
  <text x="246.4" y="416" font-family="system-ui,sans-serif" font-size="10" fill="#1E40AF">795.8 ns</text>
  <text x="-10" y="458" text-anchor="end" font-family="system-ui,sans-serif" font-size="11.5" fill="#4B5563">Checksum</text>
  <rect x="0" y="436" width="185.9" height="16" fill="url(#goGrad2)" rx="3"/>
  <text x="191.9" y="448" font-family="system-ui,sans-serif" font-size="10" fill="#0E7490">175.0 ns</text>
  <rect x="0" y="456" width="263.8" height="16" fill="url(#tsGrad2)" rx="3"/>
  <text x="269.8" y="468" font-family="system-ui,sans-serif" font-size="10" fill="#1E40AF">1.53 µs</text>
  <text x="-10" y="510" text-anchor="end" font-family="system-ui,sans-serif" font-size="11.5" fill="#4B5563">IsAddress</text>
  <rect x="0" y="488" width="215.1" height="16" fill="url(#goGrad2)" rx="3"/>
  <text x="221.1" y="500" font-family="system-ui,sans-serif" font-size="10" fill="#0E7490">395.0 ns</text>
  <rect x="0" y="508" width="255.0" height="16" fill="url(#tsGrad2)" rx="3"/>
  <text x="261.0" y="520" font-family="system-ui,sans-serif" font-size="10" fill="#1E40AF">1.20 µs</text>
  <text x="-10" y="562" text-anchor="end" font-family="system-ui,sans-serif" font-size="11.5" fill="#4B5563">CREATE</text>
  <rect x="0" y="540" width="243.5" height="16" fill="url(#goGrad2)" rx="3"/>
  <text x="249.5" y="552" font-family="system-ui,sans-serif" font-size="10" fill="#0E7490">868.3 ns</text>
  <rect x="0" y="560" width="386.4" height="16" fill="url(#tsGrad2)" rx="3"/>
  <text x="392.4" y="572" font-family="system-ui,sans-serif" font-size="10" fill="#1E40AF">46.12 µs</text>
  <text x="-10" y="614" text-anchor="end" font-family="system-ui,sans-serif" font-size="11.5" fill="#4B5563">CREATE2</text>
  <rect x="0" y="592" width="255.2" height="16" fill="url(#goGrad2)" rx="3"/>
  <text x="261.2" y="604" font-family="system-ui,sans-serif" font-size="10" fill="#0E7490">1.20 µs</text>
  <rect x="0" y="612" width="385.7" height="16" fill="url(#tsGrad2)" rx="3"/>
  <text x="391.7" y="624" font-family="system-ui,sans-serif" font-size="10" fill="#1E40AF">45.18 µs</text>
  <text x="-10" y="660" text-anchor="end" font-family="system-ui,sans-serif" font-size="13" font-weight="700" fill="#1F2937">Ens</text>
  <text x="-10" y="702" text-anchor="end" font-family="system-ui,sans-serif" font-size="11.5" fill="#4B5563">Normalize</text>
  <rect x="0" y="680" width="222.6" height="16" fill="url(#goGrad2)" rx="3"/>
  <text x="228.6" y="692" font-family="system-ui,sans-serif" font-size="10" fill="#0E7490">485.8 ns</text>
  <rect x="0" y="700" width="341.5" height="16" fill="url(#tsGrad2)" rx="3"/>
  <text x="347.5" y="712" font-family="system-ui,sans-serif" font-size="10" fill="#1E40AF">13.24 µs</text>
  <text x="-10" y="754" text-anchor="end" font-family="system-ui,sans-serif" font-size="11.5" fill="#4B5563">Labelhash</text>
  <rect x="0" y="732" width="226.0" height="16" fill="url(#goGrad2)" rx="3"/>
  <text x="232.0" y="744" font-family="system-ui,sans-serif" font-size="10" fill="#0E7490">534.2 ns</text>
  <rect x="0" y="752" width="344.3" height="16" fill="url(#tsGrad2)" rx="3"/>
  <text x="350.3" y="764" font-family="system-ui,sans-serif" font-size="10" fill="#1E40AF">14.30 µs</text>
  <text x="-10" y="806" text-anchor="end" font-family="system-ui,sans-serif" font-size="11.5" fill="#4B5563">Normalize Long</text>
  <rect x="0" y="784" width="249.8" height="16" fill="url(#goGrad2)" rx="3"/>
  <text x="255.8" y="796" font-family="system-ui,sans-serif" font-size="10" fill="#0E7490">1.03 µs</text>
  <rect x="0" y="804" width="373.8" height="16" fill="url(#tsGrad2)" rx="3"/>
  <text x="379.8" y="816" font-family="system-ui,sans-serif" font-size="10" fill="#1E40AF">32.48 µs</text>
  <text x="-10" y="858" text-anchor="end" font-family="system-ui,sans-serif" font-size="11.5" fill="#4B5563">Namehash</text>
  <rect x="0" y="836" width="278.4" height="16" fill="url(#goGrad2)" rx="3"/>
  <text x="284.4" y="848" font-family="system-ui,sans-serif" font-size="10" fill="#0E7490">2.29 µs</text>
  <rect x="0" y="856" width="443.3" height="16" fill="url(#tsGrad2)" rx="3"/>
  <text x="449.3" y="868" font-family="system-ui,sans-serif" font-size="10" fill="#1E40AF">224.08 µs</text>
  <text x="-10" y="910" text-anchor="end" font-family="system-ui,sans-serif" font-size="11.5" fill="#4B5563">Namehash Deep</text>
  <rect x="0" y="888" width="290.3" height="16" fill="url(#goGrad2)" rx="3"/>
  <text x="296.3" y="900" font-family="system-ui,sans-serif" font-size="10" fill="#0E7490">3.19 µs</text>
  <rect x="0" y="908" width="421.3" height="16" fill="url(#tsGrad2)" rx="3"/>
  <text x="427.3" y="920" font-family="system-ui,sans-serif" font-size="10" fill="#1E40AF">121.51 µs</text>
  <text x="-10" y="956" text-anchor="end" font-family="system-ui,sans-serif" font-size="13" font-weight="700" fill="#1F2937">Event</text>
  <text x="-10" y="998" text-anchor="end" font-family="system-ui,sans-serif" font-size="11.5" fill="#4B5563">Decode Transfer</text>
  <rect x="0" y="976" width="230.1" height="16" fill="url(#goGrad2)" rx="3"/>
  <text x="236.1" y="988" font-family="system-ui,sans-serif" font-size="10" fill="#0E7490">598.3 ns</text>
  <rect x="0" y="996" width="506.5" height="16" fill="url(#tsGrad2)" rx="3"/>
  <text x="512.5" y="1008" font-family="system-ui,sans-serif" font-size="10" fill="#1E40AF">1.30 ms</text>
  <text x="-10" y="1050" text-anchor="end" font-family="system-ui,sans-serif" font-size="11.5" fill="#4B5563">Decode Batch 10</text>
  <rect x="0" y="1028" width="302.9" height="16" fill="url(#goGrad2)" rx="3"/>
  <text x="308.9" y="1040" font-family="system-ui,sans-serif" font-size="10" fill="#0E7490">4.53 µs</text>
  <rect x="0" y="1048" width="544.6" height="16" fill="url(#tsGrad2)" rx="3"/>
  <text x="550.6" y="1060" font-family="system-ui,sans-serif" font-size="10" fill="#1E40AF">3.74 ms</text>
  <text x="-10" y="1102" text-anchor="end" font-family="system-ui,sans-serif" font-size="11.5" fill="#4B5563">Decode Batch 100</text>
  <rect x="0" y="1080" width="384.7" height="16" fill="url(#goGrad2)" rx="3"/>
  <text x="390.7" y="1092" font-family="system-ui,sans-serif" font-size="10" fill="#0E7490">43.95 µs</text>
  <rect x="0" y="1100" width="530.6" height="16" fill="url(#tsGrad2)" rx="3"/>
  <text x="536.6" y="1112" font-family="system-ui,sans-serif" font-size="10" fill="#1E40AF">2.53 ms</text>
  <text x="-10" y="1148" text-anchor="end" font-family="system-ui,sans-serif" font-size="13" font-weight="700" fill="#1F2937">Hash</text>
  <text x="-10" y="1190" text-anchor="end" font-family="system-ui,sans-serif" font-size="11.5" fill="#4B5563">SHA-256 Short</text>
  <rect x="0" y="1168" width="203.9" height="16" fill="url(#goGrad2)" rx="3"/>
  <text x="209.9" y="1180" font-family="system-ui,sans-serif" font-size="10" fill="#0E7490">289.2 ns</text>
  <rect x="0" y="1188" width="359.3" height="16" fill="url(#tsGrad2)" rx="3"/>
  <text x="365.3" y="1200" font-family="system-ui,sans-serif" font-size="10" fill="#1E40AF">21.71 µs</text>
  <text x="-10" y="1242" text-anchor="end" font-family="system-ui,sans-serif" font-size="11.5" fill="#4B5563">Keccak256 Hex</text>
  <rect x="0" y="1220" width="228.9" height="16" fill="url(#goGrad2)" rx="3"/>
  <text x="234.9" y="1232" font-family="system-ui,sans-serif" font-size="10" fill="#0E7490">579.2 ns</text>
  <rect x="0" y="1240" width="336.6" height="16" fill="url(#tsGrad2)" rx="3"/>
  <text x="342.6" y="1252" font-family="system-ui,sans-serif" font-size="10" fill="#1E40AF">11.53 µs</text>
  <text x="-10" y="1294" text-anchor="end" font-family="system-ui,sans-serif" font-size="11.5" fill="#4B5563">Keccak256 Short</text>
  <rect x="0" y="1272" width="230.4" height="16" fill="url(#goGrad2)" rx="3"/>
  <text x="236.4" y="1284" font-family="system-ui,sans-serif" font-size="10" fill="#0E7490">603.3 ns</text>
  <rect x="0" y="1292" width="376.8" height="16" fill="url(#tsGrad2)" rx="3"/>
  <text x="382.8" y="1304" font-family="system-ui,sans-serif" font-size="10" fill="#1E40AF">35.31 µs</text>
  <text x="-10" y="1346" text-anchor="end" font-family="system-ui,sans-serif" font-size="11.5" fill="#4B5563">SHA-256 Long</text>
  <rect x="0" y="1324" width="234.1" height="16" fill="url(#goGrad2)" rx="3"/>
  <text x="240.1" y="1336" font-family="system-ui,sans-serif" font-size="10" fill="#0E7490">668.3 ns</text>
  <rect x="0" y="1344" width="386.6" height="16" fill="url(#tsGrad2)" rx="3"/>
  <text x="392.6" y="1356" font-family="system-ui,sans-serif" font-size="10" fill="#1E40AF">46.36 µs</text>
  <text x="-10" y="1398" text-anchor="end" font-family="system-ui,sans-serif" font-size="11.5" fill="#4B5563">Fn Selector</text>
  <rect x="0" y="1376" width="278.0" height="16" fill="url(#goGrad2)" rx="3"/>
  <text x="284.0" y="1388" font-family="system-ui,sans-serif" font-size="10" fill="#0E7490">2.26 µs</text>
  <rect x="0" y="1396" width="351.1" height="16" fill="url(#tsGrad2)" rx="3"/>
  <text x="357.1" y="1408" font-family="system-ui,sans-serif" font-size="10" fill="#1E40AF">17.28 µs</text>
  <text x="-10" y="1450" text-anchor="end" font-family="system-ui,sans-serif" font-size="11.5" fill="#4B5563">Event Selector</text>
  <rect x="0" y="1428" width="281.8" height="16" fill="url(#goGrad2)" rx="3"/>
  <text x="287.8" y="1440" font-family="system-ui,sans-serif" font-size="10" fill="#0E7490">2.52 µs</text>
  <rect x="0" y="1448" width="341.2" height="16" fill="url(#tsGrad2)" rx="3"/>
  <text x="347.2" y="1460" font-family="system-ui,sans-serif" font-size="10" fill="#1E40AF">13.13 µs</text>
  <text x="-10" y="1502" text-anchor="end" font-family="system-ui,sans-serif" font-size="11.5" fill="#4B5563">Keccak256 Long</text>
  <rect x="0" y="1480" width="285.5" height="16" fill="url(#goGrad2)" rx="3"/>
  <text x="291.5" y="1492" font-family="system-ui,sans-serif" font-size="10" fill="#0E7490">2.79 µs</text>
  <rect x="0" y="1500" width="408.6" height="16" fill="url(#tsGrad2)" rx="3"/>
  <text x="414.6" y="1512" font-family="system-ui,sans-serif" font-size="10" fill="#1E40AF">85.31 µs</text>
  <text x="-10" y="1548" text-anchor="end" font-family="system-ui,sans-serif" font-size="13" font-weight="700" fill="#1F2937">Signature</text>
  <text x="-10" y="1590" text-anchor="end" font-family="system-ui,sans-serif" font-size="11.5" fill="#4B5563">Parse Signature</text>
  <rect x="0" y="1568" width="198.8" height="16" fill="url(#goGrad2)" rx="3"/>
  <text x="204.8" y="1580" font-family="system-ui,sans-serif" font-size="10" fill="#0E7490">250.8 ns</text>
  <rect x="0" y="1588" width="315.9" height="16" fill="url(#tsGrad2)" rx="3"/>
  <text x="321.9" y="1600" font-family="system-ui,sans-serif" font-size="10" fill="#1E40AF">6.50 µs</text>
  <text x="-10" y="1642" text-anchor="end" font-family="system-ui,sans-serif" font-size="11.5" fill="#4B5563">HashMessage</text>
  <rect x="0" y="1620" width="241.0" height="16" fill="url(#goGrad2)" rx="3"/>
  <text x="247.0" y="1632" font-family="system-ui,sans-serif" font-size="10" fill="#0E7490">809.2 ns</text>
  <rect x="0" y="1640" width="389.3" height="16" fill="url(#tsGrad2)" rx="3"/>
  <text x="395.3" y="1652" font-family="system-ui,sans-serif" font-size="10" fill="#1E40AF">49.88 µs</text>
  <text x="-10" y="1694" text-anchor="end" font-family="system-ui,sans-serif" font-size="11.5" fill="#4B5563">HashMessage Long</text>
  <rect x="0" y="1672" width="279.0" height="16" fill="url(#goGrad2)" rx="3"/>
  <text x="285.0" y="1684" font-family="system-ui,sans-serif" font-size="10" fill="#0E7490">2.33 µs</text>
  <rect x="0" y="1692" width="390.4" height="16" fill="url(#tsGrad2)" rx="3"/>
  <text x="396.4" y="1704" font-family="system-ui,sans-serif" font-size="10" fill="#1E40AF">51.43 µs</text>
  <text x="-10" y="1746" text-anchor="end" font-family="system-ui,sans-serif" font-size="11.5" fill="#4B5563">Verify Message</text>
  <rect x="0" y="1724" width="365.4" height="16" fill="url(#goGrad2)" rx="3"/>
  <text x="371.4" y="1736" font-family="system-ui,sans-serif" font-size="10" fill="#0E7490">25.72 µs</text>
  <rect x="0" y="1744" width="520.2" height="16" fill="url(#tsGrad2)" rx="3"/>
  <text x="526.2" y="1756" font-family="system-ui,sans-serif" font-size="10" fill="#1E40AF">1.90 ms</text>
  <text x="-10" y="1798" text-anchor="end" font-family="system-ui,sans-serif" font-size="11.5" fill="#4B5563">Recover Address</text>
  <rect x="0" y="1776" width="365.7" height="16" fill="url(#goGrad2)" rx="3"/>
  <text x="371.7" y="1788" font-family="system-ui,sans-serif" font-size="10" fill="#0E7490">25.88 µs</text>
  <rect x="0" y="1796" width="532.7" height="16" fill="url(#tsGrad2)" rx="3"/>
  <text x="538.7" y="1808" font-family="system-ui,sans-serif" font-size="10" fill="#1E40AF">2.69 ms</text>
  <text x="-10" y="1844" text-anchor="end" font-family="system-ui,sans-serif" font-size="13" font-weight="700" fill="#1F2937">Unit</text>
  <text x="-10" y="1886" text-anchor="end" font-family="system-ui,sans-serif" font-size="11.5" fill="#4B5563">ParseGwei</text>
  <rect x="0" y="1864" width="176.7" height="16" fill="url(#goGrad2)" rx="3"/>
  <text x="182.7" y="1876" font-family="system-ui,sans-serif" font-size="10" fill="#0E7490">135.8 ns</text>
  <rect x="0" y="1884" width="251.1" height="16" fill="url(#tsGrad2)" rx="3"/>
  <text x="257.1" y="1896" font-family="system-ui,sans-serif" font-size="10" fill="#1E40AF">1.07 µs</text>
  <text x="-10" y="1938" text-anchor="end" font-family="system-ui,sans-serif" font-size="11.5" fill="#4B5563">FormatEther</text>
  <rect x="0" y="1916" width="184.6" height="16" fill="url(#goGrad2)" rx="3"/>
  <text x="190.6" y="1928" font-family="system-ui,sans-serif" font-size="10" fill="#0E7490">169.2 ns</text>
  <rect x="0" y="1936" width="286.4" height="16" fill="url(#tsGrad2)" rx="3"/>
  <text x="292.4" y="1948" font-family="system-ui,sans-serif" font-size="10" fill="#1E40AF">2.86 µs</text>
  <text x="-10" y="1990" text-anchor="end" font-family="system-ui,sans-serif" font-size="11.5" fill="#4B5563">ParseUnits(6)</text>
  <rect x="0" y="1968" width="185.2" height="16" fill="url(#goGrad2)" rx="3"/>
  <text x="191.2" y="1980" font-family="system-ui,sans-serif" font-size="10" fill="#0E7490">171.7 ns</text>
  <rect x="0" y="1988" width="255.2" height="16" fill="url(#tsGrad2)" rx="3"/>
  <text x="261.2" y="2000" font-family="system-ui,sans-serif" font-size="10" fill="#1E40AF">1.20 µs</text>
  <text x="-10" y="2042" text-anchor="end" font-family="system-ui,sans-serif" font-size="11.5" fill="#4B5563">FormatUnits</text>
  <rect x="0" y="2020" width="191.2" height="16" fill="url(#goGrad2)" rx="3"/>
  <text x="197.2" y="2032" font-family="system-ui,sans-serif" font-size="10" fill="#0E7490">203.3 ns</text>
  <rect x="0" y="2040" width="237.8" height="16" fill="url(#tsGrad2)" rx="3"/>
  <text x="243.8" y="2052" font-family="system-ui,sans-serif" font-size="10" fill="#1E40AF">741.6 ns</text>
  <text x="-10" y="2094" text-anchor="end" font-family="system-ui,sans-serif" font-size="11.5" fill="#4B5563">ParseEther</text>
  <rect x="0" y="2072" width="195.2" height="16" fill="url(#goGrad2)" rx="3"/>
  <text x="201.2" y="2084" font-family="system-ui,sans-serif" font-size="10" fill="#0E7490">226.7 ns</text>
  <rect x="0" y="2092" width="299.6" height="16" fill="url(#tsGrad2)" rx="3"/>
  <text x="305.6" y="2104" font-family="system-ui,sans-serif" font-size="10" fill="#1E40AF">4.13 µs</text>
  <text x="-10" y="2146" text-anchor="end" font-family="system-ui,sans-serif" font-size="11.5" fill="#4B5563">ParseEther Large</text>
  <rect x="0" y="2124" width="203.7" height="16" fill="url(#goGrad2)" rx="3"/>
  <text x="209.7" y="2136" font-family="system-ui,sans-serif" font-size="10" fill="#0E7490">287.5 ns</text>
  <rect x="0" y="2144" width="242.8" height="16" fill="url(#tsGrad2)" rx="3"/>
  <text x="248.8" y="2156" font-family="system-ui,sans-serif" font-size="10" fill="#1E40AF">851.8 ns</text>
</g>
<g transform="translate(340,2283)">
  <rect width="14" height="14" fill="#00ADD8" rx="3"/>
  <text x="18" y="11" font-family="system-ui,sans-serif" font-size="11" fill="#4B5563">Go (viem-go)</text>
  <rect x="120" width="14" height="14" fill="#3178C6" rx="3"/>
  <text x="138" y="11" font-family="system-ui,sans-serif" font-size="11" fill="#4B5563">TypeScript (viem)</text>
</g>
</svg>