<svg xmlns="http://www.w3.org/2000/svg" width="640" height="428" viewBox="0 0 640 428">
<rect width="640" height="428" fill="#FAFAFA" rx="12"/>
<rect x=".5" y=".5" width="639" height="427" fill="none" stroke="#E5E7EB" rx="12"/>
<text x="24" y="34" font-family="system-ui,sans-serif" font-size="16" font-weight="700" fill="#111827">viem-go Benchmark Summary</text>
<rect x="483.5" y="18" width="136.5" height="26" fill="#00ADD8" rx="13"/>
<text x="551.75" y="35" text-anchor="middle" font-family="system-ui,sans-serif" font-size="12" font-weight="600" fill="white">Go 29.9x faster</text>
<rect x="24" y="54" width="592" height="24" fill="#F3F4F6" rx="12"/>
<rect x="24" y="54" width="592" height="24" fill="#00ADD8" rx="12"/>
<text x="320" y="70" text-anchor="middle" font-family="system-ui,sans-serif" font-size="11" font-weight="600" fill="white">37 Go wins &#183; 0 TS wins &#183; 0 ties (37 total)</text>
<text x="24" y="114" font-family="system-ui,sans-serif" font-size="12" font-weight="600" fill="#374151">Abi</text>
<text x="24" y="128" font-family="system-ui,sans-serif" font-size="10" fill="#9CA3AF">6 benchmarks</text>
<rect x="130" y="100" width="180" height="18" fill="#00ADD8" rx="4" opacity="0.85"/>
<text x="320" y="114" font-family="system-ui,sans-serif" font-size="13" font-weight="700" fill="#00ADD8">40.4x</text>
<text x="24" y="158" font-family="system-ui,sans-serif" font-size="12" font-weight="600" fill="#374151">Address</text>
<text x="24" y="172" font-family="system-ui,sans-serif" font-size="10" fill="#9CA3AF">5 benchmarks</text>
<rect x="130" y="144" width="122" height="18" fill="#00ADD8" rx="4" opacity="0.85"/>
<text x="262" y="158" font-family="system-ui,sans-serif" font-size="13" font-weight="700" fill="#00ADD8">12.3x</text>
<text x="24" y="202" font-family="system-ui,sans-serif" font-size="12" font-weight="600" fill="#374151">Ens</text>
<text x="24" y="216" font-family="system-ui,sans-serif" font-size="10" fill="#9CA3AF">5 benchmarks</text>
<rect x="130" y="188" width="178" height="18" fill="#00ADD8" rx="4" opacity="0.85"/>
<text x="318" y="202" font-family="system-ui,sans-serif" font-size="13" font-weight="700" fill="#00ADD8">38.6x</text>
<text x="24" y="246" font-family="system-ui,sans-serif" font-size="12" font-weight="600" fill="#374151">Event</text>
<text x="24" y="260" font-family="system-ui,sans-serif" font-size="10" fill="#9CA3AF">3 benchmarks</text>
<rect x="130" y="232" width="300" height="18" fill="#00ADD8" rx="4" opacity="0.85"/>
<text x="440" y="246" font-family="system-ui,sans-serif" font-size="13" font-weight="700" fill="#00ADD8">469.3x</text>
<text x="24" y="290" font-family="system-ui,sans-serif" font-size="12" font-weight="600" fill="#374151">Hash</text>
<text x="24" y="304" font-family="system-ui,sans-serif" font-size="10" fill="#9CA3AF">7 benchmarks</text>
<rect x="130" y="276" width="158" height="18" fill="#00ADD8" rx="4" opacity="0.85"/>
<text x="298" y="290" font-family="system-ui,sans-serif" font-size="13" font-weight="700" fill="#00ADD8">25.7x</text>
<text x="24" y="334" font-family="system-ui,sans-serif" font-size="12" font-weight="600" fill="#374151">Signature</text>
<text x="24" y="348" font-family="system-ui,sans-serif" font-size="10" fill="#9CA3AF">5 benchmarks</text>
<rect x="130" y="320" width="189" height="18" fill="#00ADD8" rx="4" opacity="0.85"/>
<text x="329" y="334" font-family="system-ui,sans-serif" font-size="13" font-weight="700" fill="#00ADD8">48.6x</text>
<text x="24" y="378" font-family="system-ui,sans-serif" font-size="12" font-weight="600" fill="#374151">Unit</text>
<text x="24" y="392" font-family="system-ui,sans-serif" font-size="10" fill="#9CA3AF">6 benchmarks</text>
<rect x="130" y="364" width="99" height="18" fill="#00ADD8" rx="4" opacity="0.85"/>
<text x="239" y="378" font-family="system-ui,sans-serif" font-size="13" font-weight="700" fill="#00ADD8">7.5x</text>
<text x="320" y="418" text-anchor="middle" font-family="system-ui,sans-serif" font-size="10" fill="#D1D5DB">Benchmarked against Anvil (Mainnet Fork) &#183; Same RPC endpoint</text>
</svg>