<svg xmlns="http://www.w3.org/2000/svg" width="640" height="516" viewBox="0 0 640 516">
<rect width="640" height="516" fill="#FAFAFA" rx="12"/>
<rect x=".5" y=".5" width="639" height="515" fill="none" stroke="#E5E7EB" rx="12"/>
<text x="24" y="34" font-family="system-ui,sans-serif" font-size="16" font-weight="700" fill="#111827">viem-go Benchmark Summary</text>
<rect x="491" y="18" width="129" height="26" fill="#00ADD8" rx="13"/>
<text x="555.5" y="35" text-anchor="middle" font-family="system-ui,sans-serif" font-size="12" font-weight="600" fill="white">Go 7.1x faster</text>
<rect x="24" y="54" width="592" height="24" fill="#F3F4F6" rx="12"/>
<rect x="24" y="54" width="592" height="24" fill="#00ADD8" rx="12"/>
<text x="320" y="70" text-anchor="middle" font-family="system-ui,sans-serif" font-size="11" font-weight="600" fill="white">59 Go wins &#183; 0 TS wins &#183; 0 ties (59 total)</text>
<text x="24" y="114" font-family="system-ui,sans-serif" font-size="12" font-weight="600" fill="#374151">Abi</text>
<text x="24" y="128" font-family="system-ui,sans-serif" font-size="10" fill="#9CA3AF">6 benchmarks</text>
<rect x="130" y="100" width="155" height="18" fill="#00ADD8" rx="4" opacity="0.85"/>
<text x="295" y="114" font-family="system-ui,sans-serif" font-size="13" font-weight="700" fill="#00ADD8">7.3x</text>
<text x="24" y="158" font-family="system-ui,sans-serif" font-size="12" font-weight="600" fill="#374151">Address</text>
<text x="24" y="172" font-family="system-ui,sans-serif" font-size="10" fill="#9CA3AF">5 benchmarks</text>
<rect x="130" y="144" width="144" height="18" fill="#00ADD8" rx="4" opacity="0.85"/>
<text x="284" y="158" font-family="system-ui,sans-serif" font-size="13" font-weight="700" fill="#00ADD8">6.3x</text>
<text x="24" y="202" font-family="system-ui,sans-serif" font-size="12" font-weight="600" fill="#374151">Call</text>
<text x="24" y="216" font-family="system-ui,sans-serif" font-size="10" fill="#9CA3AF">6 benchmarks</text>
<rect x="130" y="188" width="300" height="18" fill="#00ADD8" rx="4" opacity="0.85"/>
<text x="440" y="202" font-family="system-ui,sans-serif" font-size="13" font-weight="700" fill="#00ADD8">45.9x</text>
<text x="24" y="246" font-family="system-ui,sans-serif" font-size="12" font-weight="600" fill="#374151">Ens</text>
<text x="24" y="260" font-family="system-ui,sans-serif" font-size="10" fill="#9CA3AF">5 benchmarks</text>
<rect x="130" y="232" width="154" height="18" fill="#00ADD8" rx="4" opacity="0.85"/>
<text x="294" y="246" font-family="system-ui,sans-serif" font-size="13" font-weight="700" fill="#00ADD8">7.1x</text>
<text x="24" y="290" font-family="system-ui,sans-serif" font-size="12" font-weight="600" fill="#374151">Event</text>
<text x="24" y="304" font-family="system-ui,sans-serif" font-size="10" fill="#9CA3AF">3 benchmarks</text>
<rect x="130" y="276" width="242" height="18" fill="#00ADD8" rx="4" opacity="0.85"/>
<text x="382" y="290" font-family="system-ui,sans-serif" font-size="13" font-weight="700" fill="#00ADD8">21.8x</text>
<text x="24" y="334" font-family="system-ui,sans-serif" font-size="12" font-weight="600" fill="#374151">Hash</text>
<text x="24" y="348" font-family="system-ui,sans-serif" font-size="10" fill="#9CA3AF">7 benchmarks</text>
<rect x="130" y="320" width="185" height="18" fill="#00ADD8" rx="4" opacity="0.85"/>
<text x="325" y="334" font-family="system-ui,sans-serif" font-size="13" font-weight="700" fill="#00ADD8">10.6x</text>
<text x="24" y="378" font-family="system-ui,sans-serif" font-size="12" font-weight="600" fill="#374151">Multicall</text>
<text x="24" y="392" font-family="system-ui,sans-serif" font-size="10" fill="#9CA3AF">16 benchmarks</text>
<rect x="130" y="364" width="83" height="18" fill="#00ADD8" rx="4" opacity="0.85"/>
<text x="223" y="378" font-family="system-ui,sans-serif" font-size="13" font-weight="700" fill="#00ADD8">2.9x</text>
<text x="24" y="422" font-family="system-ui,sans-serif" font-size="12" font-weight="600" fill="#374151">Signature</text>
<text x="24" y="436" font-family="system-ui,sans-serif" font-size="10" fill="#9CA3AF">5 benchmarks</text>
<rect x="130" y="408" width="230" height="18" fill="#00ADD8" rx="4" opacity="0.85"/>
<text x="370" y="422" font-family="system-ui,sans-serif" font-size="13" font-weight="700" fill="#00ADD8">18.7x</text>
<text x="24" y="466" font-family="system-ui,sans-serif" font-size="12" font-weight="600" fill="#374151">Unit</text>
<text x="24" y="480" font-family="system-ui,sans-serif" font-size="10" fill="#9CA3AF">6 benchmarks</text>
<rect x="130" y="452" width="62" height="18" fill="#00ADD8" rx="4" opacity="0.85"/>
<text x="202" y="466" font-family="system-ui,sans-serif" font-size="13" font-weight="700" fill="#00ADD8">2.2x</text>
<text x="320" y="506" text-anchor="middle" font-family="system-ui,sans-serif" font-size="10" fill="#D1D5DB">Benchmarked against Anvil (Mainnet Fork) &#183; Same RPC endpoint</text>
</svg>
