<svg xmlns="http://www.w3.org/2000/svg" width="880" height="3527" viewBox="0 0 880 3527">
<defs>
  <linearGradient id="goGrad2" x1="0" y1="0" x2="1" y2="0">
    <stop offset="0%" stop-color="#00ADD8" stop-opacity="0.9"/>
    <stop offset="100%" stop-color="#0891B2" stop-opacity="0.8"/>
  </linearGradient>
  <linearGradient id="tsGrad2" x1="0" y1="0" x2="1" y2="0">
    <stop offset="0%" stop-color="#3178C6" stop-opacity="0.9"/>
    <stop offset="100%" stop-color="#1D4ED8" stop-opacity="0.8"/>
  </linearGradient>
</defs>
<rect width="880" height="3527" fill="#FAFAFA" rx="12"/>
<rect x=".5" y=".5" width="879" height="3526" fill="none" stroke="#E5E7EB" rx="12"/>
<text x="440" y="34" text-anchor="middle" font-family="system-ui,sans-serif" font-size="18" font-weight="700" fill="#111827">Latency Comparison: Go vs TypeScript</text>
<text x="440" y="54" text-anchor="middle" font-family="system-ui,sans-serif" font-size="12" fill="#6B7280">Nanoseconds per operation (lower is better) &#183; log scale</text>
<g transform="translate(200,80)">
  <line x1="0.0" y1="0" x2="0.0" y2="3392" stroke="#E5E7EB"/>
  <text x="0.0" y="3408" text-anchor="middle" font-family="system-ui,sans-serif" font-size="10" fill="#9CA3AF">1ns</text>
  <line x1="64.4" y1="0" x2="64.4" y2="3392" stroke="#E5E7EB"/>
  <text x="64.4" y="3408" text-anchor="middle" font-family="system-ui,sans-serif" font-size="10" fill="#9CA3AF">10ns</text>
  <line x1="128.9" y1="0" x2="128.9" y2="3392" stroke="#E5E7EB"/>
  <text x="128.9" y="3408" text-anchor="middle" font-family="system-ui,sans-serif" font-size="10" fill="#9CA3AF">100ns</text>
  <line x1="193.3" y1="0" x2="193.3" y2="3392" stroke="#E5E7EB"/>
  <text x="193.3" y="3408" text-anchor="middle" font-family="system-ui,sans-serif" font-size="10" fill="#9CA3AF">1&#181;s</text>
  <line x1="257.8" y1="0" x2="257.8" y2="3392" stroke="#E5E7EB"/>
  <text x="257.8" y="3408" text-anchor="middle" font-family="system-ui,sans-serif" font-size="10" fill="#9CA3AF">10&#181;s</text>
  <line x1="322.2" y1="0" x2="322.2" y2="3392" stroke="#E5E7EB"/>
  <text x="322.2" y="3408" text-anchor="middle" font-family="system-ui,sans-serif" font-size="10" fill="#9CA3AF">100&#181;s</text>
  <line x1="386.7" y1="0" x2="386.7" y2="3392" stroke="#E5E7EB"/>
  <text x="386.7" y="3408" text-anchor="middle" font-family="system-ui,sans-serif" font-size="10" fill="#9CA3AF">1ms</text>
  <line x1="451.1" y1="0" x2="451.1" y2="3392" stroke="#E5E7EB"/>
  <text x="451.1" y="3408" text-anchor="middle" font-family="system-ui,sans-serif" font-size="10" fill="#9CA3AF">10ms</text>
  <line x1="515.6" y1="0" x2="515.6" y2="3392" stroke="#E5E7EB"/>
  <text x="515.6" y="3408" text-anchor="middle" font-family="system-ui,sans-serif" font-size="10" fill="#9CA3AF">100ms</text>
  <line x1="580.0" y1="0" x2="580.0" y2="3392" stroke="#E5E7EB"/>
  <text x="580.0" y="3408" text-anchor="middle" font-family="system-ui,sans-serif" font-size="10" fill="#9CA3AF">1s</text>
  <text x="-10" y="16" text-anchor="end" font-family="system-ui,sans-serif" font-size="13" font-weight="700" fill="#1F2937">Abi</text>
  <text x="-10" y="58" text-anchor="end" font-family="system-ui,sans-serif" font-size="11.5" fill="#4B5563">Decode Result</text>
  <rect x="0" y="36" width="126.5" height="16" fill="url(#goGrad2)" rx="3"/>
  <text x="132.5" y="48" font-family="system-ui,sans-serif" font-size="10" fill="#0E7490">91.7 ns</text>
  <rect x="0" y="56" width="193.8" height="16" fill="url(#tsGrad2)" rx="3"/>
  <text x="199.8" y="68" font-family="system-ui,sans-serif" font-size="10" fill="#1E40AF">1.02 µs</text>
  <text x="-10" y="110" text-anchor="end" font-family="system-ui,sans-serif" font-size="11.5" fill="#4B5563">Encode Simple</text>
  <rect x="0" y="88" width="149.1" height="16" fill="url(#goGrad2)" rx="3"/>
  <text x="155.1" y="100" font-family="system-ui,sans-serif" font-size="10" fill="#0E7490">206.1 ns</text>
  <rect x="0" y="108" width="246.8" height="16" fill="url(#tsGrad2)" rx="3"/>
  <text x="252.8" y="120" font-family="system-ui,sans-serif" font-size="10" fill="#1E40AF">6.76 µs</text>
  <text x="-10" y="162" text-anchor="end" font-family="system-ui,sans-serif" font-size="11.5" fill="#4B5563">Encode Complex</text>
  <rect x="0" y="140" width="160.7" height="16" fill="url(#goGrad2)" rx="3"/>
  <text x="166.7" y="152" font-family="system-ui,sans-serif" font-size="10" fill="#0E7490">311.4 ns</text>
  <rect x="0" y="160" width="254.2" height="16" fill="url(#tsGrad2)" rx="3"/>
  <text x="260.2" y="172" font-family="system-ui,sans-serif" font-size="10" fill="#1E40AF">8.79 µs</text>
  <text x="-10" y="214" text-anchor="end" font-family="system-ui,sans-serif" font-size="11.5" fill="#4B5563">EncodePacked</text>
  <rect x="0" y="192" width="160.8" height="16" fill="url(#goGrad2)" rx="3"/>
  <text x="166.8" y="204" font-family="system-ui,sans-serif" font-size="10" fill="#0E7490">312.6 ns</text>
  <rect x="0" y="212" width="182.3" height="16" fill="url(#tsGrad2)" rx="3"/>
  <text x="188.3" y="224" font-family="system-ui,sans-serif" font-size="10" fill="#1E40AF">675.3 ns</text>
  <text x="-10" y="266" text-anchor="end" font-family="system-ui,sans-serif" font-size="11.5" fill="#4B5563">EncodePacked Multi</text>
  <rect x="0" y="244" width="165.6" height="16" fill="url(#goGrad2)" rx="3"/>
  <text x="171.6" y="256" font-family="system-ui,sans-serif" font-size="10" fill="#0E7490">371.0 ns</text>
  <rect x="0" y="264" width="196.8" height="16" fill="url(#tsGrad2)" rx="3"/>
  <text x="202.8" y="276" font-family="system-ui,sans-serif" font-size="10" fill="#1E40AF">1.13 µs</text>
  <text x="-10" y="318" text-anchor="end" font-family="system-ui,sans-serif" font-size="11.5" fill="#4B5563">Encode 3-Arg</text>
  <rect x="0" y="296" width="170.3" height="16" fill="url(#goGrad2)" rx="3"/>
  <text x="176.3" y="308" font-family="system-ui,sans-serif" font-size="10" fill="#0E7490">439.8 ns</text>
  <rect x="0" y="316" width="252.9" height="16" fill="url(#tsGrad2)" rx="3"/>
  <text x="258.9" y="328" font-family="system-ui,sans-serif" font-size="10" fill="#1E40AF">8.41 µs</text>
  <text x="-10" y="364" text-anchor="end" font-family="system-ui,sans-serif" font-size="13" font-weight="700" fill="#1F2937">Address</text>
  <text x="-10" y="406" text-anchor="end" font-family="system-ui,sans-serif" font-size="11.5" fill="#4B5563">IsAddress Lower</text>
  <rect x="0" y="384" width="159.6" height="16" fill="url(#goGrad2)" rx="3"/>
  <text x="165.6" y="396" font-family="system-ui,sans-serif" font-size="10" fill="#0E7490">299.8 ns</text>
  <rect x="0" y="404" width="152.4" height="16" fill="url(#tsGrad2)" rx="3"/>
  <text x="158.4" y="416" font-family="system-ui,sans-serif" font-size="10" fill="#1E40AF">231.9 ns</text>
  <text x="-10" y="458" text-anchor="end" font-family="system-ui,sans-serif" font-size="11.5" fill="#4B5563">Checksum</text>
  <rect x="0" y="436" width="187.1" height="16" fill="url(#goGrad2)" rx="3"/>
  <text x="193.1" y="448" font-family="system-ui,sans-serif" font-size="10" fill="#0E7490">800.6 ns</text>
  <rect x="0" y="456" width="179.7" height="16" fill="url(#tsGrad2)" rx="3"/>
  <text x="185.7" y="468" font-family="system-ui,sans-serif" font-size="10" fill="#1E40AF">614.8 ns</text>
  <text x="-10" y="510" text-anchor="end" font-family="system-ui,sans-serif" font-size="11.5" fill="#4B5563">IsAddress</text>
  <rect x="0" y="488" width="190.7" height="16" fill="url(#goGrad2)" rx="3"/>
  <text x="196.7" y="500" font-family="system-ui,sans-serif" font-size="10" fill="#0E7490">910.4 ns</text>
  <rect x="0" y="508" width="152.4" height="16" fill="url(#tsGrad2)" rx="3"/>
  <text x="158.4" y="520" font-family="system-ui,sans-serif" font-size="10" fill="#1E40AF">231.6 ns</text>
  <text x="-10" y="562" text-anchor="end" font-family="system-ui,sans-serif" font-size="11.5" fill="#4B5563">CREATE</text>
  <rect x="0" y="540" width="217.1" height="16" fill="url(#goGrad2)" rx="3"/>
  <text x="223.1" y="552" font-family="system-ui,sans-serif" font-size="10" fill="#0E7490">2.34 µs</text>
  <rect x="0" y="560" width="249.4" height="16" fill="url(#tsGrad2)" rx="3"/>
  <text x="255.4" y="572" font-family="system-ui,sans-serif" font-size="10" fill="#1E40AF">7.41 µs</text>
  <text x="-10" y="614" text-anchor="end" font-family="system-ui,sans-serif" font-size="11.5" fill="#4B5563">CREATE2</text>
  <rect x="0" y="592" width="220.4" height="16" fill="url(#goGrad2)" rx="3"/>
  <text x="226.4" y="604" font-family="system-ui,sans-serif" font-size="10" fill="#0E7490">2.63 µs</text>
  <rect x="0" y="612" width="267.4" height="16" fill="url(#tsGrad2)" rx="3"/>
  <text x="273.4" y="624" font-family="system-ui,sans-serif" font-size="10" fill="#1E40AF">14.10 µs</text>
  <text x="-10" y="660" text-anchor="end" font-family="system-ui,sans-serif" font-size="13" font-weight="700" fill="#1F2937">Call</text>
  <text x="-10" y="702" text-anchor="end" font-family="system-ui,sans-serif" font-size="11.5" fill="#4B5563">With Data</text>
  <rect x="0" y="680" width="338.6" height="16" fill="url(#goGrad2)" rx="3"/>
  <text x="344.6" y="692" font-family="system-ui,sans-serif" font-size="10" fill="#0E7490">179.28 µs</text>
  <rect x="0" y="700" width="468.5" height="16" fill="url(#tsGrad2)" rx="3"/>
  <text x="474.5" y="712" font-family="system-ui,sans-serif" font-size="10" fill="#1E40AF">18.65 ms</text>
  <text x="-10" y="754" text-anchor="end" font-family="system-ui,sans-serif" font-size="11.5" fill="#4B5563">BalanceOf Multi</text>
  <rect x="0" y="732" width="338.8" height="16" fill="url(#goGrad2)" rx="3"/>
  <text x="344.8" y="744" font-family="system-ui,sans-serif" font-size="10" fill="#0E7490">180.62 µs</text>
  <rect x="0" y="752" width="468.3" height="16" fill="url(#tsGrad2)" rx="3"/>
  <text x="474.3" y="764" font-family="system-ui,sans-serif" font-size="10" fill="#1E40AF">18.50 ms</text>
  <text x="-10" y="806" text-anchor="end" font-family="system-ui,sans-serif" font-size="11.5" fill="#4B5563">With Account</text>
  <rect x="0" y="784" width="338.8" height="16" fill="url(#goGrad2)" rx="3"/>
  <text x="344.8" y="796" font-family="system-ui,sans-serif" font-size="10" fill="#0E7490">181.11 µs</text>
  <rect x="0" y="804" width="348.9" height="16" fill="url(#tsGrad2)" rx="3"/>
  <text x="354.9" y="816" font-family="system-ui,sans-serif" font-size="10" fill="#1E40AF">259.09 µs</text>
  <text x="-10" y="858" text-anchor="end" font-family="system-ui,sans-serif" font-size="11.5" fill="#4B5563">Decimals</text>
  <rect x="0" y="836" width="339.2" height="16" fill="url(#goGrad2)" rx="3"/>
  <text x="345.2" y="848" font-family="system-ui,sans-serif" font-size="10" fill="#0E7490">183.31 µs</text>
  <rect x="0" y="856" width="467.9" height="16" fill="url(#tsGrad2)" rx="3"/>
  <text x="473.9" y="868" font-family="system-ui,sans-serif" font-size="10" fill="#1E40AF">18.23 ms</text>
  <text x="-10" y="910" text-anchor="end" font-family="system-ui,sans-serif" font-size="11.5" fill="#4B5563">Basic</text>
  <rect x="0" y="888" width="339.3" height="16" fill="url(#goGrad2)" rx="3"/>
  <text x="345.3" y="900" font-family="system-ui,sans-serif" font-size="10" fill="#0E7490">184.25 µs</text>
  <rect x="0" y="908" width="468.9" height="16" fill="url(#tsGrad2)" rx="3"/>
  <text x="474.9" y="920" font-family="system-ui,sans-serif" font-size="10" fill="#1E40AF">18.89 ms</text>
  <text x="-10" y="962" text-anchor="end" font-family="system-ui,sans-serif" font-size="11.5" fill="#4B5563">Symbol</text>
  <rect x="0" y="940" width="340.0" height="16" fill="url(#goGrad2)" rx="3"/>
  <text x="346.0" y="952" font-family="system-ui,sans-serif" font-size="10" fill="#0E7490">188.98 µs</text>
  <rect x="0" y="960" width="468.1" height="16" fill="url(#tsGrad2)" rx="3"/>
  <text x="474.1" y="972" font-family="system-ui,sans-serif" font-size="10" fill="#1E40AF">18.34 ms</text>
  <text x="-10" y="1008" text-anchor="end" font-family="system-ui,sans-serif" font-size="13" font-weight="700" fill="#1F2937">Ens</text>
  <text x="-10" y="1050" text-anchor="end" font-family="system-ui,sans-serif" font-size="11.5" fill="#4B5563">Normalize</text>
  <rect x="0" y="1028" width="163.4" height="16" fill="url(#goGrad2)" rx="3"/>
  <text x="169.4" y="1040" font-family="system-ui,sans-serif" font-size="10" fill="#0E7490">343.6 ns</text>
  <rect x="0" y="1048" width="201.1" height="16" fill="url(#tsGrad2)" rx="3"/>
  <text x="207.1" y="1060" font-family="system-ui,sans-serif" font-size="10" fill="#1E40AF">1.32 µs</text>
  <text x="-10" y="1102" text-anchor="end" font-family="system-ui,sans-serif" font-size="11.5" fill="#4B5563">Labelhash</text>
  <rect x="0" y="1080" width="169.6" height="16" fill="url(#goGrad2)" rx="3"/>
  <text x="175.6" y="1092" font-family="system-ui,sans-serif" font-size="10" fill="#0E7490">428.8 ns</text>
  <rect x="0" y="1100" width="240.3" height="16" fill="url(#tsGrad2)" rx="3"/>
  <text x="246.3" y="1112" font-family="system-ui,sans-serif" font-size="10" fill="#1E40AF">5.36 µs</text>
  <text x="-10" y="1154" text-anchor="end" font-family="system-ui,sans-serif" font-size="11.5" fill="#4B5563">Normalize Long</text>
  <rect x="0" y="1132" width="190.0" height="16" fill="url(#goGrad2)" rx="3"/>
  <text x="196.0" y="1144" font-family="system-ui,sans-serif" font-size="10" fill="#0E7490">887.3 ns</text>
  <rect x="0" y="1152" width="230.5" height="16" fill="url(#tsGrad2)" rx="3"/>
  <text x="236.5" y="1164" font-family="system-ui,sans-serif" font-size="10" fill="#1E40AF">3.78 µs</text>
  <text x="-10" y="1206" text-anchor="end" font-family="system-ui,sans-serif" font-size="11.5" fill="#4B5563">Namehash</text>
  <rect x="0" y="1184" width="205.7" height="16" fill="url(#goGrad2)" rx="3"/>
  <text x="211.7" y="1196" font-family="system-ui,sans-serif" font-size="10" fill="#0E7490">1.56 µs</text>
  <rect x="0" y="1204" width="278.1" height="16" fill="url(#tsGrad2)" rx="3"/>
  <text x="284.1" y="1216" font-family="system-ui,sans-serif" font-size="10" fill="#1E40AF">20.66 µs</text>
  <text x="-10" y="1258" text-anchor="end" font-family="system-ui,sans-serif" font-size="11.5" fill="#4B5563">Namehash Deep</text>
  <rect x="0" y="1236" width="224.3" height="16" fill="url(#goGrad2)" rx="3"/>
  <text x="230.3" y="1248" font-family="system-ui,sans-serif" font-size="10" fill="#0E7490">3.02 µs</text>
  <rect x="0" y="1256" width="297.2" height="16" fill="url(#tsGrad2)" rx="3"/>
  <text x="303.2" y="1268" font-family="system-ui,sans-serif" font-size="10" fill="#1E40AF">40.88 µs</text>
  <text x="-10" y="1304" text-anchor="end" font-family="system-ui,sans-serif" font-size="13" font-weight="700" fill="#1F2937">Event</text>
  <text x="-10" y="1346" text-anchor="end" font-family="system-ui,sans-serif" font-size="11.5" fill="#4B5563">Decode Transfer</text>
  <rect x="0" y="1324" width="165.8" height="16" fill="url(#goGrad2)" rx="3"/>
  <text x="171.8" y="1336" font-family="system-ui,sans-serif" font-size="10" fill="#0E7490">374.2 ns</text>
  <rect x="0" y="1344" width="258.7" height="16" fill="url(#tsGrad2)" rx="3"/>
  <text x="264.7" y="1356" font-family="system-ui,sans-serif" font-size="10" fill="#1E40AF">10.33 µs</text>
  <text x="-10" y="1398" text-anchor="end" font-family="system-ui,sans-serif" font-size="11.5" fill="#4B5563">Decode Batch 10</text>
  <rect x="0" y="1376" width="230.2" height="16" fill="url(#goGrad2)" rx="3"/>
  <text x="236.2" y="1388" font-family="system-ui,sans-serif" font-size="10" fill="#0E7490">3.73 µs</text>
  <rect x="0" y="1396" width="323.1" height="16" fill="url(#tsGrad2)" rx="3"/>
  <text x="329.1" y="1408" font-family="system-ui,sans-serif" font-size="10" fill="#1E40AF">103.00 µs</text>
  <text x="-10" y="1450" text-anchor="end" font-family="system-ui,sans-serif" font-size="11.5" fill="#4B5563">Decode Batch 100</text>
  <rect x="0" y="1428" width="294.6" height="16" fill="url(#goGrad2)" rx="3"/>
  <text x="300.6" y="1440" font-family="system-ui,sans-serif" font-size="10" fill="#0E7490">37.27 µs</text>
  <rect x="0" y="1448" width="387.0" height="16" fill="url(#tsGrad2)" rx="3"/>
  <text x="393.0" y="1460" font-family="system-ui,sans-serif" font-size="10" fill="#1E40AF">1.01 ms</text>
  <text x="-10" y="1496" text-anchor="end" font-family="system-ui,sans-serif" font-size="13" font-weight="700" fill="#1F2937">Hash</text>
  <text x="-10" y="1538" text-anchor="end" font-family="system-ui,sans-serif" font-size="11.5" fill="#4B5563">SHA-256 Short</text>
  <rect x="0" y="1516" width="140.8" height="16" fill="url(#goGrad2)" rx="3"/>
  <text x="146.8" y="1528" font-family="system-ui,sans-serif" font-size="10" fill="#0E7490">153.3 ns</text>
  <rect x="0" y="1536" width="207.1" height="16" fill="url(#tsGrad2)" rx="3"/>
  <text x="213.1" y="1548" font-family="system-ui,sans-serif" font-size="10" fill="#1E40AF">1.63 µs</text>
  <text x="-10" y="1590" text-anchor="end" font-family="system-ui,sans-serif" font-size="11.5" fill="#4B5563">Keccak256 Short</text>
  <rect x="0" y="1568" width="169.4" height="16" fill="url(#goGrad2)" rx="3"/>
  <text x="175.4" y="1580" font-family="system-ui,sans-serif" font-size="10" fill="#0E7490">425.0 ns</text>
  <rect x="0" y="1588" width="240.0" height="16" fill="url(#tsGrad2)" rx="3"/>
  <text x="246.0" y="1600" font-family="system-ui,sans-serif" font-size="10" fill="#1E40AF">5.29 µs</text>
  <text x="-10" y="1642" text-anchor="end" font-family="system-ui,sans-serif" font-size="11.5" fill="#4B5563">Keccak256 Hex</text>
  <rect x="0" y="1620" width="171.2" height="16" fill="url(#goGrad2)" rx="3"/>
  <text x="177.2" y="1632" font-family="system-ui,sans-serif" font-size="10" fill="#0E7490">452.7 ns</text>
  <rect x="0" y="1640" width="240.0" height="16" fill="url(#tsGrad2)" rx="3"/>
  <text x="246.0" y="1652" font-family="system-ui,sans-serif" font-size="10" fill="#1E40AF">5.30 µs</text>
  <text x="-10" y="1694" text-anchor="end" font-family="system-ui,sans-serif" font-size="11.5" fill="#4B5563">SHA-256 Long</text>
  <rect x="0" y="1672" width="183.3" height="16" fill="url(#goGrad2)" rx="3"/>
  <text x="189.3" y="1684" font-family="system-ui,sans-serif" font-size="10" fill="#0E7490">699.9 ns</text>
  <rect x="0" y="1692" width="272.1" height="16" fill="url(#tsGrad2)" rx="3"/>
  <text x="278.1" y="1704" font-family="system-ui,sans-serif" font-size="10" fill="#1E40AF">16.67 µs</text>
  <text x="-10" y="1746" text-anchor="end" font-family="system-ui,sans-serif" font-size="11.5" fill="#4B5563">Fn Selector</text>
  <rect x="0" y="1724" width="212.3" height="16" fill="url(#goGrad2)" rx="3"/>
  <text x="218.3" y="1736" font-family="system-ui,sans-serif" font-size="10" fill="#0E7490">1.97 µs</text>
  <rect x="0" y="1744" width="244.7" height="16" fill="url(#tsGrad2)" rx="3"/>
  <text x="250.7" y="1756" font-family="system-ui,sans-serif" font-size="10" fill="#1E40AF">6.27 µs</text>
  <text x="-10" y="1798" text-anchor="end" font-family="system-ui,sans-serif" font-size="11.5" fill="#4B5563">Event Selector</text>
  <rect x="0" y="1776" width="218.2" height="16" fill="url(#goGrad2)" rx="3"/>
  <text x="224.2" y="1788" font-family="system-ui,sans-serif" font-size="10" fill="#0E7490">2.43 µs</text>
  <rect x="0" y="1796" width="246.0" height="16" fill="url(#tsGrad2)" rx="3"/>
  <text x="252.0" y="1808" font-family="system-ui,sans-serif" font-size="10" fill="#1E40AF">6.56 µs</text>
  <text x="-10" y="1850" text-anchor="end" font-family="system-ui,sans-serif" font-size="11.5" fill="#4B5563">Keccak256 Long</text>
  <rect x="0" y="1828" width="220.8" height="16" fill="url(#goGrad2)" rx="3"/>
  <text x="226.8" y="1840" font-family="system-ui,sans-serif" font-size="10" fill="#0E7490">2.67 µs</text>
  <rect x="0" y="1848" width="300.2" height="16" fill="url(#tsGrad2)" rx="3"/>
  <text x="306.2" y="1860" font-family="system-ui,sans-serif" font-size="10" fill="#1E40AF">45.45 µs</text>
  <text x="-10" y="1896" text-anchor="end" font-family="system-ui,sans-serif" font-size="13" font-weight="700" fill="#1F2937">Multicall</text>
  <text x="-10" y="1938" text-anchor="end" font-family="system-ui,sans-serif" font-size="11.5" fill="#4B5563">With Args</text>
  <rect x="0" y="1916" width="344.2" height="16" fill="url(#goGrad2)" rx="3"/>
  <text x="350.2" y="1928" font-family="system-ui,sans-serif" font-size="10" fill="#0E7490">219.66 µs</text>
  <rect x="0" y="1936" width="362.5" height="16" fill="url(#tsGrad2)" rx="3"/>
  <text x="368.5" y="1948" font-family="system-ui,sans-serif" font-size="10" fill="#1E40AF">421.81 µs</text>
  <text x="-10" y="1990" text-anchor="end" font-family="system-ui,sans-serif" font-size="11.5" fill="#4B5563">Basic</text>
  <rect x="0" y="1968" width="345.5" height="16" fill="url(#goGrad2)" rx="3"/>
  <text x="351.5" y="1980" font-family="system-ui,sans-serif" font-size="10" fill="#0E7490">229.55 µs</text>
  <rect x="0" y="1988" width="365.6" height="16" fill="url(#tsGrad2)" rx="3"/>
  <text x="371.6" y="2000" font-family="system-ui,sans-serif" font-size="10" fill="#1E40AF">470.75 µs</text>
  <text x="-10" y="2042" text-anchor="end" font-family="system-ui,sans-serif" font-size="11.5" fill="#4B5563">Token Metadata</text>
  <rect x="0" y="2020" width="346.5" height="16" fill="url(#goGrad2)" rx="3"/>
  <text x="352.5" y="2032" font-family="system-ui,sans-serif" font-size="10" fill="#0E7490">238.01 µs</text>
  <rect x="0" y="2040" width="358.4" height="16" fill="url(#tsGrad2)" rx="3"/>
  <text x="364.4" y="2052" font-family="system-ui,sans-serif" font-size="10" fill="#1E40AF">364.33 µs</text>
  <text x="-10" y="2094" text-anchor="end" font-family="system-ui,sans-serif" font-size="11.5" fill="#4B5563">Multi-Contract</text>
  <rect x="0" y="2072" width="349.6" height="16" fill="url(#goGrad2)" rx="3"/>
  <text x="355.6" y="2084" font-family="system-ui,sans-serif" font-size="10" fill="#0E7490">265.60 µs</text>
  <rect x="0" y="2092" width="360.5" height="16" fill="url(#tsGrad2)" rx="3"/>
  <text x="366.5" y="2104" font-family="system-ui,sans-serif" font-size="10" fill="#1E40AF">392.46 µs</text>
  <text x="-10" y="2146" text-anchor="end" font-family="system-ui,sans-serif" font-size="11.5" fill="#4B5563">10 Calls</text>
  <rect x="0" y="2124" width="354.4" height="16" fill="url(#goGrad2)" rx="3"/>
  <text x="360.4" y="2136" font-family="system-ui,sans-serif" font-size="10" fill="#0E7490">315.94 µs</text>
  <rect x="0" y="2144" width="367.9" height="16" fill="url(#tsGrad2)" rx="3"/>
  <text x="373.9" y="2156" font-family="system-ui,sans-serif" font-size="10" fill="#1E40AF">512.13 µs</text>
  <text x="-10" y="2198" text-anchor="end" font-family="system-ui,sans-serif" font-size="11.5" fill="#4B5563">Deployless</text>
  <rect x="0" y="2176" width="359.7" height="16" fill="url(#goGrad2)" rx="3"/>
  <text x="365.7" y="2188" font-family="system-ui,sans-serif" font-size="10" fill="#0E7490">381.33 µs</text>
  <rect x="0" y="2196" width="370.5" height="16" fill="url(#tsGrad2)" rx="3"/>
  <text x="376.5" y="2208" font-family="system-ui,sans-serif" font-size="10" fill="#1E40AF">561.38 µs</text>
  <text x="-10" y="2250" text-anchor="end" font-family="system-ui,sans-serif" font-size="11.5" fill="#4B5563">30 Calls</text>
  <rect x="0" y="2228" width="368.5" height="16" fill="url(#goGrad2)" rx="3"/>
  <text x="374.5" y="2240" font-family="system-ui,sans-serif" font-size="10" fill="#0E7490">523.22 µs</text>
  <rect x="0" y="2248" width="383.1" height="16" fill="url(#tsGrad2)" rx="3"/>
  <text x="389.1" y="2260" font-family="system-ui,sans-serif" font-size="10" fill="#1E40AF">880.42 µs</text>
  <text x="-10" y="2302" text-anchor="end" font-family="system-ui,sans-serif" font-size="11.5" fill="#4B5563">50 Calls</text>
  <rect x="0" y="2280" width="389.9" height="16" fill="url(#goGrad2)" rx="3"/>
  <text x="395.9" y="2292" font-family="system-ui,sans-serif" font-size="10" fill="#0E7490">1.12 ms</text>
  <rect x="0" y="2300" width="393.4" height="16" fill="url(#tsGrad2)" rx="3"/>
  <text x="399.4" y="2312" font-family="system-ui,sans-serif" font-size="10" fill="#1E40AF">1.27 ms</text>
  <text x="-10" y="2354" text-anchor="end" font-family="system-ui,sans-serif" font-size="11.5" fill="#4B5563">100 Mixed</text>
  <rect x="0" y="2332" width="395.2" height="16" fill="url(#goGrad2)" rx="3"/>
  <text x="401.2" y="2344" font-family="system-ui,sans-serif" font-size="10" fill="#0E7490">1.36 ms</text>
  <rect x="0" y="2352" width="410.9" height="16" fill="url(#tsGrad2)" rx="3"/>
  <text x="416.9" y="2364" font-family="system-ui,sans-serif" font-size="10" fill="#1E40AF">2.38 ms</text>
  <text x="-10" y="2406" text-anchor="end" font-family="system-ui,sans-serif" font-size="11.5" fill="#4B5563">100 Calls</text>
  <rect x="0" y="2384" width="397.2" height="16" fill="url(#goGrad2)" rx="3"/>
  <text x="403.2" y="2396" font-family="system-ui,sans-serif" font-size="10" fill="#0E7490">1.46 ms</text>
  <rect x="0" y="2404" width="409.0" height="16" fill="url(#tsGrad2)" rx="3"/>
  <text x="415.0" y="2416" font-family="system-ui,sans-serif" font-size="10" fill="#1E40AF">2.22 ms</text>
  <text x="-10" y="2458" text-anchor="end" font-family="system-ui,sans-serif" font-size="11.5" fill="#4B5563">200 Calls</text>
  <rect x="0" y="2436" width="412.4" height="16" fill="url(#goGrad2)" rx="3"/>
  <text x="418.4" y="2448" font-family="system-ui,sans-serif" font-size="10" fill="#0E7490">2.50 ms</text>
  <rect x="0" y="2456" width="426.6" height="16" fill="url(#tsGrad2)" rx="3"/>
  <text x="432.6" y="2468" font-family="system-ui,sans-serif" font-size="10" fill="#1E40AF">4.17 ms</text>
  <text x="-10" y="2510" text-anchor="end" font-family="system-ui,sans-serif" font-size="11.5" fill="#4B5563">500 Calls</text>
  <rect x="0" y="2488" width="423.4" height="16" fill="url(#goGrad2)" rx="3"/>
  <text x="429.4" y="2500" font-family="system-ui,sans-serif" font-size="10" fill="#0E7490">3.72 ms</text>
  <rect x="0" y="2508" width="448.2" height="16" fill="url(#tsGrad2)" rx="3"/>
  <text x="454.2" y="2520" font-family="system-ui,sans-serif" font-size="10" fill="#1E40AF">9.02 ms</text>
  <text x="-10" y="2562" text-anchor="end" font-family="system-ui,sans-serif" font-size="11.5" fill="#4B5563">1K Calls</text>
  <rect x="0" y="2540" width="434.3" height="16" fill="url(#goGrad2)" rx="3"/>
  <text x="440.3" y="2552" font-family="system-ui,sans-serif" font-size="10" fill="#0E7490">5.48 ms</text>
  <rect x="0" y="2560" width="466.5" height="16" fill="url(#tsGrad2)" rx="3"/>
  <text x="472.5" y="2572" font-family="system-ui,sans-serif" font-size="10" fill="#1E40AF">17.30 ms</text>
  <text x="-10" y="2614" text-anchor="end" font-family="system-ui,sans-serif" font-size="11.5" fill="#4B5563">10K Chunked</text>
  <rect x="0" y="2592" width="481.1" height="16" fill="url(#goGrad2)" rx="3"/>
  <text x="487.1" y="2604" font-family="system-ui,sans-serif" font-size="10" fill="#0E7490">29.15 ms</text>
  <rect x="0" y="2612" width="530.7" height="16" fill="url(#tsGrad2)" rx="3"/>
  <text x="536.7" y="2624" font-family="system-ui,sans-serif" font-size="10" fill="#1E40AF">171.87 ms</text>
  <text x="-10" y="2666" text-anchor="end" font-family="system-ui,sans-serif" font-size="11.5" fill="#4B5563">10K Aggressive</text>
  <rect x="0" y="2644" width="483.8" height="16" fill="url(#goGrad2)" rx="3"/>
  <text x="489.8" y="2656" font-family="system-ui,sans-serif" font-size="10" fill="#0E7490">32.11 ms</text>
  <rect x="0" y="2664" width="529.7" height="16" fill="url(#tsGrad2)" rx="3"/>
  <text x="535.7" y="2676" font-family="system-ui,sans-serif" font-size="10" fill="#1E40AF">166.05 ms</text>
  <text x="-10" y="2718" text-anchor="end" font-family="system-ui,sans-serif" font-size="11.5" fill="#4B5563">10K Single RPC</text>
  <rect x="0" y="2696" width="520.9" height="16" fill="url(#goGrad2)" rx="3"/>
  <text x="526.9" y="2708" font-family="system-ui,sans-serif" font-size="10" fill="#0E7490">121.11 ms</text>
  <rect x="0" y="2716" width="529.9" height="16" fill="url(#tsGrad2)" rx="3"/>
  <text x="535.9" y="2728" font-family="system-ui,sans-serif" font-size="10" fill="#1E40AF">166.93 ms</text>
  <text x="-10" y="2764" text-anchor="end" font-family="system-ui,sans-serif" font-size="13" font-weight="700" fill="#1F2937">Signature</text>
  <text x="-10" y="2806" text-anchor="end" font-family="system-ui,sans-serif" font-size="11.5" fill="#4B5563">Parse Signature</text>
  <rect x="0" y="2784" width="150.1" height="16" fill="url(#goGrad2)" rx="3"/>
  <text x="156.1" y="2796" font-family="system-ui,sans-serif" font-size="10" fill="#0E7490">213.3 ns</text>
  <rect x="0" y="2804" width="209.2" height="16" fill="url(#tsGrad2)" rx="3"/>
  <text x="215.2" y="2816" font-family="system-ui,sans-serif" font-size="10" fill="#1E40AF">1.77 µs</text>
  <text x="-10" y="2858" text-anchor="end" font-family="system-ui,sans-serif" font-size="11.5" fill="#4B5563">HashMessage</text>
  <rect x="0" y="2836" width="185.3" height="16" fill="url(#goGrad2)" rx="3"/>
  <text x="191.3" y="2848" font-family="system-ui,sans-serif" font-size="10" fill="#0E7490">750.1 ns</text>
  <rect x="0" y="2856" width="265.8" height="16" fill="url(#tsGrad2)" rx="3"/>
  <text x="271.8" y="2868" font-family="system-ui,sans-serif" font-size="10" fill="#1E40AF">13.33 µs</text>
  <text x="-10" y="2910" text-anchor="end" font-family="system-ui,sans-serif" font-size="11.5" fill="#4B5563">HashMessage Long</text>
  <rect x="0" y="2888" width="208.5" height="16" fill="url(#goGrad2)" rx="3"/>
  <text x="214.5" y="2900" font-family="system-ui,sans-serif" font-size="10" fill="#0E7490">1.72 µs</text>
  <rect x="0" y="2908" width="275.9" height="16" fill="url(#tsGrad2)" rx="3"/>
  <text x="281.9" y="2920" font-family="system-ui,sans-serif" font-size="10" fill="#1E40AF">19.11 µs</text>
  <text x="-10" y="2962" text-anchor="end" font-family="system-ui,sans-serif" font-size="11.5" fill="#4B5563">Recover Address</text>
  <rect x="0" y="2940" width="284.5" height="16" fill="url(#goGrad2)" rx="3"/>
  <text x="290.5" y="2952" font-family="system-ui,sans-serif" font-size="10" fill="#0E7490">25.96 µs</text>
  <rect x="0" y="2960" width="413.1" height="16" fill="url(#tsGrad2)" rx="3"/>
  <text x="419.1" y="2972" font-family="system-ui,sans-serif" font-size="10" fill="#1E40AF">2.57 ms</text>
  <text x="-10" y="3014" text-anchor="end" font-family="system-ui,sans-serif" font-size="11.5" fill="#4B5563">Verify Message</text>
  <rect x="0" y="2992" width="286.0" height="16" fill="url(#goGrad2)" rx="3"/>
  <text x="292.0" y="3004" font-family="system-ui,sans-serif" font-size="10" fill="#0E7490">27.43 µs</text>
  <rect x="0" y="3012" width="401.6" height="16" fill="url(#tsGrad2)" rx="3"/>
  <text x="407.6" y="3024" font-family="system-ui,sans-serif" font-size="10" fill="#1E40AF">1.71 ms</text>
  <text x="-10" y="3060" text-anchor="end" font-family="system-ui,sans-serif" font-size="13" font-weight="700" fill="#1F2937">Unit</text>
  <text x="-10" y="3102" text-anchor="end" font-family="system-ui,sans-serif" font-size="11.5" fill="#4B5563">FormatUnits</text>
  <rect x="0" y="3080" width="128.4" height="16" fill="url(#goGrad2)" rx="3"/>
  <text x="134.4" y="3092" font-family="system-ui,sans-serif" font-size="10" fill="#0E7490">98.3 ns</text>
  <rect x="0" y="3100" width="139.1" height="16" fill="url(#tsGrad2)" rx="3"/>
  <text x="145.1" y="3112" font-family="system-ui,sans-serif" font-size="10" fill="#1E40AF">144.2 ns</text>
  <text x="-10" y="3154" text-anchor="end" font-family="system-ui,sans-serif" font-size="11.5" fill="#4B5563">ParseUnits(6)</text>
  <rect x="0" y="3132" width="129.3" height="16" fill="url(#goGrad2)" rx="3"/>
  <text x="135.3" y="3144" font-family="system-ui,sans-serif" font-size="10" fill="#0E7490">101.3 ns</text>
  <rect x="0" y="3152" width="149.6" height="16" fill="url(#tsGrad2)" rx="3"/>
  <text x="155.6" y="3164" font-family="system-ui,sans-serif" font-size="10" fill="#1E40AF">209.5 ns</text>
  <text x="-10" y="3206" text-anchor="end" font-family="system-ui,sans-serif" font-size="11.5" fill="#4B5563">ParseGwei</text>
  <rect x="0" y="3184" width="129.7" height="16" fill="url(#goGrad2)" rx="3"/>
  <text x="135.7" y="3196" font-family="system-ui,sans-serif" font-size="10" fill="#0E7490">103.1 ns</text>
  <rect x="0" y="3204" width="148.5" height="16" fill="url(#tsGrad2)" rx="3"/>
  <text x="154.5" y="3216" font-family="system-ui,sans-serif" font-size="10" fill="#1E40AF">201.7 ns</text>
  <text x="-10" y="3258" text-anchor="end" font-family="system-ui,sans-serif" font-size="11.5" fill="#4B5563">FormatEther</text>
  <rect x="0" y="3236" width="133.1" height="16" fill="url(#goGrad2)" rx="3"/>
  <text x="139.1" y="3248" font-family="system-ui,sans-serif" font-size="10" fill="#0E7490">116.4 ns</text>
  <rect x="0" y="3256" width="140.7" height="16" fill="url(#tsGrad2)" rx="3"/>
  <text x="146.7" y="3268" font-family="system-ui,sans-serif" font-size="10" fill="#1E40AF">152.8 ns</text>
  <text x="-10" y="3310" text-anchor="end" font-family="system-ui,sans-serif" font-size="11.5" fill="#4B5563">ParseEther</text>
  <rect x="0" y="3288" width="133.2" height="16" fill="url(#goGrad2)" rx="3"/>
  <text x="139.2" y="3300" font-family="system-ui,sans-serif" font-size="10" fill="#0E7490">116.8 ns</text>
  <rect x="0" y="3308" width="162.9" height="16" fill="url(#tsGrad2)" rx="3"/>
  <text x="168.9" y="3320" font-family="system-ui,sans-serif" font-size="10" fill="#1E40AF">336.5 ns</text>
  <text x="-10" y="3362" text-anchor="end" font-family="system-ui,sans-serif" font-size="11.5" fill="#4B5563">ParseEther Large</text>
  <rect x="0" y="3340" width="160.8" height="16" fill="url(#goGrad2)" rx="3"/>
  <text x="166.8" y="3352" font-family="system-ui,sans-serif" font-size="10" fill="#0E7490">312.6 ns</text>
  <rect x="0" y="3360" width="152.6" height="16" fill="url(#tsGrad2)" rx="3"/>
  <text x="158.6" y="3372" font-family="system-ui,sans-serif" font-size="10" fill="#1E40AF">233.6 ns</text>
</g>
<g transform="translate(340,3499)">
  <rect width="14" height="14" fill="#00ADD8" rx="3"/>
  <text x="18" y="11" font-family="system-ui,sans-serif" font-size="11" fill="#4B5563">Go (viem-go)</text>
  <rect x="120" width="14" height="14" fill="#3178C6" rx="3"/>
  <text x="138" y="11" font-family="system-ui,sans-serif" font-size="11" fill="#4B5563">TypeScript (viem)</text>
</g>
</svg>