<svg xmlns="http://www.w3.org/2000/svg" width="880" height="1003" viewBox="0 0 880 1003">
<defs>
  <linearGradient id="goGrad2" x1="0" y1="0" x2="1" y2="0">
    <stop offset="0%" stop-color="#00ADD8" stop-opacity="0.9"/>
    <stop offset="100%" stop-color="#0891B2" stop-opacity="0.8"/>
  </linearGradient>
  <linearGradient id="tsGrad2" x1="0" y1="0" x2="1" y2="0">
    <stop offset="0%" stop-color="#3178C6" stop-opacity="0.9"/>
    <stop offset="100%" stop-color="#1D4ED8" stop-opacity="0.8"/>
  </linearGradient>
</defs>
<rect width="880" height="1003" fill="#FAFAFA" rx="12"/>
<rect x=".5" y=".5" width="879" height="1002" fill="none" stroke="#E5E7EB" rx="12"/>
<text x="440" y="34" text-anchor="middle" font-family="system-ui,sans-serif" font-size="18" font-weight="700" fill="#111827">Latency Comparison: Go vs TypeScript</text>
<text x="440" y="54" text-anchor="middle" font-family="system-ui,sans-serif" font-size="12" fill="#6B7280">Nanoseconds per operation (lower is better) &#183; log scale</text>
<g transform="translate(200,80)">
  <line x1="0.0" y1="0" x2="0.0" y2="868" stroke="#E5E7EB"/>
  <text x="0.0" y="884" text-anchor="middle" font-family="system-ui,sans-serif" font-size="10" fill="#9CA3AF">1ns</text>
  <line x1="64.4" y1="0" x2="64.4" y2="868" stroke="#E5E7EB"/>
  <text x="64.4" y="884" text-anchor="middle" font-family="system-ui,sans-serif" font-size="10" fill="#9CA3AF">10ns</text>
  <line x1="128.9" y1="0" x2="128.9" y2="868" stroke="#E5E7EB"/>
  <text x="128.9" y="884" text-anchor="middle" font-family="system-ui,sans-serif" font-size="10" fill="#9CA3AF">100ns</text>
  <line x1="193.3" y1="0" x2="193.3" y2="868" stroke="#E5E7EB"/>
  <text x="193.3" y="884" text-anchor="middle" font-family="system-ui,sans-serif" font-size="10" fill="#9CA3AF">1&#181;s</text>
  <line x1="257.8" y1="0" x2="257.8" y2="868" stroke="#E5E7EB"/>
  <text x="257.8" y="884" text-anchor="middle" font-family="system-ui,sans-serif" font-size="10" fill="#9CA3AF">10&#181;s</text>
  <line x1="322.2" y1="0" x2="322.2" y2="868" stroke="#E5E7EB"/>
  <text x="322.2" y="884" text-anchor="middle" font-family="system-ui,sans-serif" font-size="10" fill="#9CA3AF">100&#181;s</text>
  <line x1="386.7" y1="0" x2="386.7" y2="868" stroke="#E5E7EB"/>
  <text x="386.7" y="884" text-anchor="middle" font-family="system-ui,sans-serif" font-size="10" fill="#9CA3AF">1ms</text>
  <line x1="451.1" y1="0" x2="451.1" y2="868" stroke="#E5E7EB"/>
  <text x="451.1" y="884" text-anchor="middle" font-family="system-ui,sans-serif" font-size="10" fill="#9CA3AF">10ms</text>
  <line x1="515.6" y1="0" x2="515.6" y2="868" stroke="#E5E7EB"/>
  <text x="515.6" y="884" text-anchor="middle" font-family="system-ui,sans-serif" font-size="10" fill="#9CA3AF">100ms</text>
  <line x1="580.0" y1="0" x2="580.0" y2="868" stroke="#E5E7EB"/>
  <text x="580.0" y="884" text-anchor="middle" font-family="system-ui,sans-serif" font-size="10" fill="#9CA3AF">1s</text>
  <text x="-10" y="16" text-anchor="end" font-family="system-ui,sans-serif" font-size="13" font-weight="700" fill="#1F2937">Multicall</text>
  <text x="-10" y="58" text-anchor="end" font-family="system-ui,sans-serif" font-size="11.5" fill="#4B5563">Basic</text>
  <rect x="0" y="36" width="342.7" height="16" fill="url(#goGrad2)" rx="3"/>
  <text x="348.7" y="48" font-family="system-ui,sans-serif" font-size="10" fill="#0E7490">207.94 µs</text>
  <rect x="0" y="56" width="368.0" height="16" fill="url(#tsGrad2)" rx="3"/>
  <text x="374.0" y="68" font-family="system-ui,sans-serif" font-size="10" fill="#1E40AF">513.27 µs</text>
  <text x="-10" y="110" text-anchor="end" font-family="system-ui,sans-serif" font-size="11.5" fill="#4B5563">With Args</text>
  <rect x="0" y="88" width="343.3" height="16" fill="url(#goGrad2)" rx="3"/>
  <text x="349.3" y="100" font-family="system-ui,sans-serif" font-size="10" fill="#0E7490">212.25 µs</text>
  <rect x="0" y="108" width="364.1" height="16" fill="url(#tsGrad2)" rx="3"/>
  <text x="370.1" y="120" font-family="system-ui,sans-serif" font-size="10" fill="#1E40AF">446.95 µs</text>
  <text x="-10" y="162" text-anchor="end" font-family="system-ui,sans-serif" font-size="11.5" fill="#4B5563">Token Metadata</text>
  <rect x="0" y="140" width="345.8" height="16" fill="url(#goGrad2)" rx="3"/>
  <text x="351.8" y="152" font-family="system-ui,sans-serif" font-size="10" fill="#0E7490">232.24 µs</text>
  <rect x="0" y="160" width="364.2" height="16" fill="url(#tsGrad2)" rx="3"/>
  <text x="370.2" y="172" font-family="system-ui,sans-serif" font-size="10" fill="#1E40AF">447.40 µs</text>
  <text x="-10" y="214" text-anchor="end" font-family="system-ui,sans-serif" font-size="11.5" fill="#4B5563">10 Calls</text>
  <rect x="0" y="192" width="351.0" height="16" fill="url(#goGrad2)" rx="3"/>
  <text x="357.0" y="204" font-family="system-ui,sans-serif" font-size="10" fill="#0E7490">279.31 µs</text>
  <rect x="0" y="212" width="372.3" height="16" fill="url(#tsGrad2)" rx="3"/>
  <text x="378.3" y="224" font-family="system-ui,sans-serif" font-size="10" fill="#1E40AF">598.37 µs</text>
  <text x="-10" y="266" text-anchor="end" font-family="system-ui,sans-serif" font-size="11.5" fill="#4B5563">Multi-Contract</text>
  <rect x="0" y="244" width="352.3" height="16" fill="url(#goGrad2)" rx="3"/>
  <text x="358.3" y="256" font-family="system-ui,sans-serif" font-size="10" fill="#0E7490">293.36 µs</text>
  <rect x="0" y="264" width="366.5" height="16" fill="url(#tsGrad2)" rx="3"/>
  <text x="372.5" y="276" font-family="system-ui,sans-serif" font-size="10" fill="#1E40AF">486.98 µs</text>
  <text x="-10" y="318" text-anchor="end" font-family="system-ui,sans-serif" font-size="11.5" fill="#4B5563">Deployless</text>
  <rect x="0" y="296" width="360.5" height="16" fill="url(#goGrad2)" rx="3"/>
  <text x="366.5" y="308" font-family="system-ui,sans-serif" font-size="10" fill="#0E7490">392.31 µs</text>
  <rect x="0" y="316" width="373.9" height="16" fill="url(#tsGrad2)" rx="3"/>
  <text x="379.9" y="328" font-family="system-ui,sans-serif" font-size="10" fill="#1E40AF">634.01 µs</text>
  <text x="-10" y="370" text-anchor="end" font-family="system-ui,sans-serif" font-size="11.5" fill="#4B5563">30 Calls</text>
  <rect x="0" y="348" width="371.0" height="16" fill="url(#goGrad2)" rx="3"/>
  <text x="377.0" y="360" font-family="system-ui,sans-serif" font-size="10" fill="#0E7490">570.40 µs</text>
  <rect x="0" y="368" width="387.6" height="16" fill="url(#tsGrad2)" rx="3"/>
  <text x="393.6" y="380" font-family="system-ui,sans-serif" font-size="10" fill="#1E40AF">1.03 ms</text>
  <text x="-10" y="422" text-anchor="end" font-family="system-ui,sans-serif" font-size="11.5" fill="#4B5563">50 Calls</text>
  <rect x="0" y="400" width="379.9" height="16" fill="url(#goGrad2)" rx="3"/>
  <text x="385.9" y="412" font-family="system-ui,sans-serif" font-size="10" fill="#0E7490">785.56 µs</text>
  <rect x="0" y="420" width="398.1" height="16" fill="url(#tsGrad2)" rx="3"/>
  <text x="404.1" y="432" font-family="system-ui,sans-serif" font-size="10" fill="#1E40AF">1.50 ms</text>
  <text x="-10" y="474" text-anchor="end" font-family="system-ui,sans-serif" font-size="11.5" fill="#4B5563">100 Calls</text>
  <rect x="0" y="452" width="395.2" height="16" fill="url(#goGrad2)" rx="3"/>
  <text x="401.2" y="464" font-family="system-ui,sans-serif" font-size="10" fill="#0E7490">1.36 ms</text>
  <rect x="0" y="472" width="413.8" height="16" fill="url(#tsGrad2)" rx="3"/>
  <text x="419.8" y="484" font-family="system-ui,sans-serif" font-size="10" fill="#1E40AF">2.64 ms</text>
  <text x="-10" y="526" text-anchor="end" font-family="system-ui,sans-serif" font-size="11.5" fill="#4B5563">100 Mixed</text>
  <rect x="0" y="504" width="395.9" height="16" fill="url(#goGrad2)" rx="3"/>
  <text x="401.9" y="516" font-family="system-ui,sans-serif" font-size="10" fill="#0E7490">1.39 ms</text>
  <rect x="0" y="524" width="413.4" height="16" fill="url(#tsGrad2)" rx="3"/>
  <text x="419.4" y="536" font-family="system-ui,sans-serif" font-size="10" fill="#1E40AF">2.60 ms</text>
  <text x="-10" y="578" text-anchor="end" font-family="system-ui,sans-serif" font-size="11.5" fill="#4B5563">200 Calls</text>
  <rect x="0" y="556" width="412.1" height="16" fill="url(#goGrad2)" rx="3"/>
  <text x="418.1" y="568" font-family="system-ui,sans-serif" font-size="10" fill="#0E7490">2.48 ms</text>
  <rect x="0" y="576" width="432.0" height="16" fill="url(#tsGrad2)" rx="3"/>
  <text x="438.0" y="588" font-family="system-ui,sans-serif" font-size="10" fill="#1E40AF">5.05 ms</text>
  <text x="-10" y="630" text-anchor="end" font-family="system-ui,sans-serif" font-size="11.5" fill="#4B5563">500 Calls</text>
  <rect x="0" y="608" width="424.5" height="16" fill="url(#goGrad2)" rx="3"/>
  <text x="430.5" y="620" font-family="system-ui,sans-serif" font-size="10" fill="#0E7490">3.86 ms</text>
  <rect x="0" y="628" width="453.5" height="16" fill="url(#tsGrad2)" rx="3"/>
  <text x="459.5" y="640" font-family="system-ui,sans-serif" font-size="10" fill="#1E40AF">10.89 ms</text>
  <text x="-10" y="682" text-anchor="end" font-family="system-ui,sans-serif" font-size="11.5" fill="#4B5563">1K Calls</text>
  <rect x="0" y="660" width="436.5" height="16" fill="url(#goGrad2)" rx="3"/>
  <text x="442.5" y="672" font-family="system-ui,sans-serif" font-size="10" fill="#0E7490">5.94 ms</text>
  <rect x="0" y="680" width="471.7" height="16" fill="url(#tsGrad2)" rx="3"/>
  <text x="477.7" y="692" font-family="system-ui,sans-serif" font-size="10" fill="#1E40AF">20.88 ms</text>
  <text x="-10" y="734" text-anchor="end" font-family="system-ui,sans-serif" font-size="11.5" fill="#4B5563">10K Chunked</text>
  <rect x="0" y="712" width="480.9" height="16" fill="url(#goGrad2)" rx="3"/>
  <text x="486.9" y="724" font-family="system-ui,sans-serif" font-size="10" fill="#0E7490">29.00 ms</text>
  <rect x="0" y="732" width="537.1" height="16" fill="url(#tsGrad2)" rx="3"/>
  <text x="543.1" y="744" font-family="system-ui,sans-serif" font-size="10" fill="#1E40AF">215.73 ms</text>
  <text x="-10" y="786" text-anchor="end" font-family="system-ui,sans-serif" font-size="11.5" fill="#4B5563">10K Aggressive</text>
  <rect x="0" y="764" width="488.1" height="16" fill="url(#goGrad2)" rx="3"/>
  <text x="494.1" y="776" font-family="system-ui,sans-serif" font-size="10" fill="#0E7490">37.55 ms</text>
  <rect x="0" y="784" width="536.5" height="16" fill="url(#tsGrad2)" rx="3"/>
  <text x="542.5" y="796" font-family="system-ui,sans-serif" font-size="10" fill="#1E40AF">211.11 ms</text>
  <text x="-10" y="838" text-anchor="end" font-family="system-ui,sans-serif" font-size="11.5" fill="#4B5563">10K Single RPC</text>
  <rect x="0" y="816" width="522.1" height="16" fill="url(#goGrad2)" rx="3"/>
  <text x="528.1" y="828" font-family="system-ui,sans-serif" font-size="10" fill="#0E7490">126.20 ms</text>
  <rect x="0" y="836" width="536.8" height="16" fill="url(#tsGrad2)" rx="3"/>
  <text x="542.8" y="848" font-family="system-ui,sans-serif" font-size="10" fill="#1E40AF">213.55 ms</text>
</g>
<g transform="translate(340,975)">
  <rect width="14" height="14" fill="#00ADD8" rx="3"/>
  <text x="18" y="11" font-family="system-ui,sans-serif" font-size="11" fill="#4B5563">Go (viem-go)</text>
  <rect x="120" width="14" height="14" fill="#3178C6" rx="3"/>
  <text x="138" y="11" font-family="system-ui,sans-serif" font-size="11" fill="#4B5563">TypeScript (viem)</text>
</g>
</svg>