<svg xmlns="http://www.w3.org/2000/svg" width="880" height="671" viewBox="0 0 880 671">
<defs>
  <linearGradient id="goGrad" x1="0" y1="0" x2="1" y2="0">
    <stop offset="0%" stop-color="#00ADD8" stop-opacity="0.95"/>
    <stop offset="100%" stop-color="#0891B2" stop-opacity="0.85"/>
  </linearGradient>
  <linearGradient id="tsGrad" x1="0" y1="0" x2="1" y2="0">
    <stop offset="0%" stop-color="#3178C6" stop-opacity="0.95"/>
    <stop offset="100%" stop-color="#1D4ED8" stop-opacity="0.85"/>
  </linearGradient>
</defs>
<rect width="880" height="671" fill="#FAFAFA" rx="12"/>
<rect x=".5" y=".5" width="879" height="670" fill="none" stroke="#E5E7EB" rx="12"/>
<text x="440" y="34" text-anchor="middle" font-family="system-ui,sans-serif" font-size="18" font-weight="700" fill="#111827">viem-go vs viem (TypeScript) &#8212; Speedup</text>
<text x="440" y="54" text-anchor="middle" font-family="system-ui,sans-serif" font-size="12" fill="#6B7280">Go is 3.3x faster overall across 16 benchmarks &#183; log scale</text>
<g transform="translate(200,80)">
  <line x1="0.0" y1="0" x2="0.0" y2="536" stroke="#E5E7EB"/>
  <text x="0.0" y="552" text-anchor="middle" font-family="system-ui,sans-serif" font-size="10" fill="#9CA3AF">1x</text>
  <line x1="177.6" y1="0" x2="177.6" y2="536" stroke="#E5E7EB"/>
  <text x="177.6" y="552" text-anchor="middle" font-family="system-ui,sans-serif" font-size="10" fill="#9CA3AF">2x</text>
  <line x1="412.4" y1="0" x2="412.4" y2="536" stroke="#E5E7EB"/>
  <text x="412.4" y="552" text-anchor="middle" font-family="system-ui,sans-serif" font-size="10" fill="#9CA3AF">5x</text>
  <line x1="590.0" y1="0" x2="590.0" y2="536" stroke="#E5E7EB"/>
  <text x="590.0" y="552" text-anchor="middle" font-family="system-ui,sans-serif" font-size="10" fill="#9CA3AF">10x</text>
  <line x1="0" y1="0" x2="0" y2="536" stroke="#D1D5DB" stroke-width="1.5"/>
  <text x="-10" y="16" text-anchor="end" font-family="system-ui,sans-serif" font-size="13" font-weight="700" fill="#1F2937">Multicall</text>
  <text x="-10" y="30" text-anchor="end" font-family="system-ui,sans-serif" font-size="10" fill="#9CA3AF">avg 3.3x</text>
  <text x="-10" y="57" text-anchor="end" font-family="system-ui,sans-serif" font-size="11.5" fill="#4B5563">Deployless</text>
  <rect x="0" y="40" width="123.0" height="26" fill="url(#goGrad)" rx="4"/>
  <text x="131.0" y="57" font-family="system-ui,sans-serif" font-size="11" font-weight="600" fill="#0E7490">1.6x</text>
  <text x="-10" y="88" text-anchor="end" font-family="system-ui,sans-serif" font-size="11.5" fill="#4B5563">Multi-Contract</text>
  <rect x="0" y="71" width="129.9" height="26" fill="url(#goGrad)" rx="4"/>
  <text x="137.9" y="88" font-family="system-ui,sans-serif" font-size="11" font-weight="600" fill="#0E7490">1.7x</text>
  <text x="-10" y="119" text-anchor="end" font-family="system-ui,sans-serif" font-size="11.5" fill="#4B5563">10K Single RPC</text>
  <rect x="0" y="102" width="134.8" height="26" fill="url(#goGrad)" rx="4"/>
  <text x="142.8" y="119" font-family="system-ui,sans-serif" font-size="11" font-weight="600" fill="#0E7490">1.7x</text>
  <text x="-10" y="150" text-anchor="end" font-family="system-ui,sans-serif" font-size="11.5" fill="#4B5563">30 Calls</text>
  <rect x="0" y="133" width="151.9" height="26" fill="url(#goGrad)" rx="4"/>
  <text x="159.9" y="150" font-family="system-ui,sans-serif" font-size="11" font-weight="600" fill="#0E7490">1.8x</text>
  <text x="-10" y="181" text-anchor="end" font-family="system-ui,sans-serif" font-size="11.5" fill="#4B5563">100 Mixed</text>
  <rect x="0" y="164" width="160.1" height="26" fill="url(#goGrad)" rx="4"/>
  <text x="168.1" y="181" font-family="system-ui,sans-serif" font-size="11" font-weight="600" fill="#0E7490">1.9x</text>
  <text x="-10" y="212" text-anchor="end" font-family="system-ui,sans-serif" font-size="11.5" fill="#4B5563">50 Calls</text>
  <rect x="0" y="195" width="166.5" height="26" fill="url(#goGrad)" rx="4"/>
  <text x="174.5" y="212" font-family="system-ui,sans-serif" font-size="11" font-weight="600" fill="#0E7490">1.9x</text>
  <text x="-10" y="243" text-anchor="end" font-family="system-ui,sans-serif" font-size="11.5" fill="#4B5563">Token Metadata</text>
  <rect x="0" y="226" width="168.0" height="26" fill="url(#goGrad)" rx="4"/>
  <text x="176.0" y="243" font-family="system-ui,sans-serif" font-size="11" font-weight="600" fill="#0E7490">1.9x</text>
  <text x="-10" y="274" text-anchor="end" font-family="system-ui,sans-serif" font-size="11.5" fill="#4B5563">100 Calls</text>
  <rect x="0" y="257" width="170.5" height="26" fill="url(#goGrad)" rx="4"/>
  <text x="178.5" y="274" font-family="system-ui,sans-serif" font-size="11" font-weight="600" fill="#0E7490">1.9x</text>
  <text x="-10" y="305" text-anchor="end" font-family="system-ui,sans-serif" font-size="11.5" fill="#4B5563">200 Calls</text>
  <rect x="0" y="288" width="181.8" height="26" fill="url(#goGrad)" rx="4"/>
  <text x="189.8" y="305" font-family="system-ui,sans-serif" font-size="11" font-weight="600" fill="#0E7490">2.0x</text>
  <text x="-10" y="336" text-anchor="end" font-family="system-ui,sans-serif" font-size="11.5" fill="#4B5563">With Args</text>
  <rect x="0" y="319" width="190.8" height="26" fill="url(#goGrad)" rx="4"/>
  <text x="198.8" y="336" font-family="system-ui,sans-serif" font-size="11" font-weight="600" fill="#0E7490">2.1x</text>
  <text x="-10" y="367" text-anchor="end" font-family="system-ui,sans-serif" font-size="11.5" fill="#4B5563">10 Calls</text>
  <rect x="0" y="350" width="195.2" height="26" fill="url(#goGrad)" rx="4"/>
  <text x="203.2" y="367" font-family="system-ui,sans-serif" font-size="11" font-weight="600" fill="#0E7490">2.1x</text>
  <text x="-10" y="398" text-anchor="end" font-family="system-ui,sans-serif" font-size="11.5" fill="#4B5563">Basic</text>
  <rect x="0" y="381" width="231.5" height="26" fill="url(#goGrad)" rx="4"/>
  <text x="239.5" y="398" font-family="system-ui,sans-serif" font-size="11" font-weight="600" fill="#0E7490">2.5x</text>
  <text x="-10" y="429" text-anchor="end" font-family="system-ui,sans-serif" font-size="11.5" fill="#4B5563">500 Calls</text>
  <rect x="0" y="412" width="265.7" height="26" fill="url(#goGrad)" rx="4"/>
  <text x="273.7" y="429" font-family="system-ui,sans-serif" font-size="11" font-weight="600" fill="#0E7490">2.8x</text>
  <text x="-10" y="460" text-anchor="end" font-family="system-ui,sans-serif" font-size="11.5" fill="#4B5563">1K Calls</text>
  <rect x="0" y="443" width="322.2" height="26" fill="url(#goGrad)" rx="4"/>
  <text x="330.2" y="460" font-family="system-ui,sans-serif" font-size="11" font-weight="600" fill="#0E7490">3.5x</text>
  <text x="-10" y="491" text-anchor="end" font-family="system-ui,sans-serif" font-size="11.5" fill="#4B5563">10K Aggressive</text>
  <rect x="0" y="474" width="442.4" height="26" fill="url(#goGrad)" rx="4"/>
  <text x="450.4" y="491" font-family="system-ui,sans-serif" font-size="11" font-weight="600" fill="#0E7490">5.6x</text>
  <text x="-10" y="522" text-anchor="end" font-family="system-ui,sans-serif" font-size="11.5" fill="#4B5563">10K Chunked</text>
  <rect x="0" y="505" width="514.2" height="26" fill="url(#goGrad)" rx="4"/>
  <text x="522.2" y="522" font-family="system-ui,sans-serif" font-size="11" font-weight="600" fill="#0E7490">7.4x</text>
</g>
<g transform="translate(340,643)">
  <rect width="14" height="14" fill="#00ADD8" rx="3"/>
  <text x="18" y="11" font-family="system-ui,sans-serif" font-size="11" fill="#4B5563">Go faster</text>
  <rect x="100" width="14" height="14" fill="#3178C6" rx="3"/>
  <text x="118" y="11" font-family="system-ui,sans-serif" font-size="11" fill="#4B5563">TS faster</text>
</g>
</svg>