<svg xmlns="http://www.w3.org/2000/svg" viewBox="0 0 114.56 28.56"><path fill="#e8eef4" stroke="#171c24" stroke-width="1.2" d="M2.2,24.4l0-18.8l4.6-4.6l13.92,0l4.52,4.52l0,4.28l-5.44,0l0-2.28l-1.88-1.88l-8.24,0l-2.04,2.04l0,14.64l2.04,2.04l8.32,0l1.96-1.96l0-4.36l-6,0l0-4.64l11.28,0l0,11l-4.6,4.6l-13.84,0z M29.04,24.84l0-11.6l4.12-4.16l11.44,0l4.12,4.16l0,11.6l-4.12,4.16l-11.44,0z M42.04,24.6l1.4-1.4l0-8.32l-1.4-1.4l-6.32,0l-1.4,1.4l0,8.32l1.4,1.4l6.32,0z M53.32,.44l5.28,0l0,28.56l-5.28,0l0-28.56z M63.2,24.92l0-11.68l4.12-4.16l11.24,0l4.16,4.16l0,7.56l-14.24,0l0,2.56l1.28,1.32l6.52,0l1.2-1.24l0-1.04l5.2,0l0,2.6l-3.96,4l-11.48,0z M77.44,17.12l0-2.32l-1.36-1.4l-6.24,0l-1.36,1.4l0,2.32l8.96,0z M86.92,9.08l4.88,0l0,3.28l3.24-3.28l5.04,0l2.72,2.76l2.72-2.76l6.96,0l4.28,4.32l0,15.6l-5.28,0l0-14.04l-1.36-1.4l-3.36,0l-2.12,2.12l0,13.32l-5.12,0l0-14.12l-1.28-1.32l-2.4,0l-3.64,3.68l0,11.76l-5.28,0l0-19.92z" transform="translate(-2.2 -.44)"/></svg>